<svg width="28" height="25" viewBox="0 0 28 25" fill="none" xmlns="http://www.w3.org/2000/svg">
<path d="M10.7281 13.6363C9.37957 13.6363 8.06135 13.2364 6.94011 12.4872C5.81887 11.7381 4.94497 10.6732 4.42892 9.42735C3.91287 8.1815 3.77784 6.81059 4.04092 5.488C4.304 4.16541 4.95337 2.95053 5.90691 1.99699C6.86044 1.04346 8.07532 0.394092 9.39791 0.131012C10.7205 -0.132068 12.0914 0.00295421 13.3373 0.519004C14.5831 1.03505 15.648 1.90895 16.3972 3.03019C17.1463 4.15143 17.5462 5.46965 17.5462 6.81816C17.5422 8.62522 16.8226 10.3571 15.5448 11.6349C14.267 12.9127 12.5351 13.6323 10.7281 13.6363ZM10.7281 1.51515C9.67923 1.51515 8.65395 1.82616 7.78188 2.40887C6.9098 2.99157 6.2301 3.81979 5.82873 4.78878C5.42736 5.75778 5.32234 6.82404 5.52696 7.85272C5.73157 8.88141 6.23664 9.82631 6.97828 10.568C7.71992 11.3096 8.66482 11.8147 9.6935 12.0193C10.7222 12.2239 11.7884 12.1189 12.7574 11.7175C13.7264 11.3161 14.5547 10.6364 15.1374 9.76435C15.7201 8.89228 16.0311 7.86699 16.0311 6.81816C16.0311 5.41171 15.4724 4.06287 14.4779 3.06836C13.4834 2.07386 12.1345 1.51515 10.7281 1.51515Z" fill="white"/>
<path d="M16.0302 25H0L0.136363 24.1212C0.470296 21.4734 1.74526 19.0339 3.72854 17.2482C5.71182 15.4624 8.27114 14.4493 10.9393 14.394C12.3193 14.3819 13.6883 14.6392 14.9696 15.1515C15.065 15.1877 15.152 15.2427 15.2256 15.3132C15.2992 15.3838 15.3578 15.4685 15.3978 15.5623C15.4379 15.656 15.4586 15.7569 15.4588 15.8589C15.4589 15.9608 15.4385 16.0618 15.3987 16.1556C15.3589 16.2495 15.3006 16.3344 15.2272 16.4052C15.1538 16.4759 15.0669 16.5312 14.9717 16.5676C14.8764 16.604 14.7748 16.6208 14.6729 16.617C14.5711 16.6132 14.471 16.5889 14.3787 16.5455C13.2891 16.0897 12.1204 15.8529 10.9393 15.8485C8.79204 15.902 6.72578 16.6794 5.07566 18.0545C3.42554 19.4296 2.28833 21.3218 1.84848 23.4242H16.0757C16.2766 23.4242 16.4693 23.504 16.6114 23.6461C16.7535 23.7882 16.8333 23.9809 16.8333 24.1818C16.8333 24.3827 16.7535 24.5754 16.6114 24.7175C16.4693 24.8596 16.2766 24.9394 16.0757 24.9394L16.0302 25Z" fill="white"/>
<path d="M21.7115 12.8782C20.5415 12.879 19.3967 13.2185 18.4153 13.8557C17.434 14.4929 16.6581 15.4006 16.1813 16.4691C15.8276 17.2441 15.6467 18.0868 15.651 18.9388C15.651 20.1374 16.0064 21.3092 16.6723 22.3058C17.3383 23.3025 18.2848 24.0793 19.3923 24.538C20.4997 24.9967 21.7183 25.1167 22.8939 24.8829C24.0695 24.649 25.1494 24.0718 25.997 23.2242C26.8446 22.3766 27.4218 21.2968 27.6557 20.1211C27.8895 18.9455 27.7695 17.7269 27.3108 16.6195C26.8521 15.512 26.0753 14.5655 25.0786 13.8996C24.082 13.2336 22.9102 12.8782 21.7115 12.8782ZM24.7418 19.7569H22.5297V21.969C22.5297 22.186 22.4435 22.3941 22.2901 22.5476C22.1366 22.701 21.9285 22.7872 21.7115 22.7872C21.4945 22.7872 21.2864 22.701 21.133 22.5476C20.9796 22.3941 20.8934 22.186 20.8934 21.969V19.6963H18.6812C18.5738 19.6963 18.4674 19.6752 18.3681 19.634C18.2689 19.5929 18.1787 19.5327 18.1027 19.4567C18.0267 19.3807 17.9665 19.2905 17.9253 19.1913C17.8842 19.092 17.8631 18.9856 17.8631 18.8782C17.8623 18.7321 17.9014 18.5886 17.9762 18.4631C18.051 18.3376 18.1585 18.2349 18.2873 18.166C18.4043 18.0904 18.5421 18.0533 18.6812 18.06H20.8934V15.9085C20.8934 15.6915 20.9796 15.4834 21.133 15.3299C21.2864 15.1765 21.4945 15.0903 21.7115 15.0903C21.9285 15.0903 22.1366 15.1765 22.2901 15.3299C22.4435 15.4834 22.5297 15.6915 22.5297 15.9085V18.1812H24.7418C24.9588 18.1812 25.1669 18.2674 25.3204 18.4208C25.4738 18.5743 25.56 18.7824 25.56 18.9994C25.56 19.2164 25.4738 19.4245 25.3204 19.5779C25.1669 19.7313 24.9588 19.8175 24.7418 19.8175V19.7569Z" fill="white"/>
</svg>
