<svg width="198" height="55" viewBox="0 0 198 55" fill="none" xmlns="http://www.w3.org/2000/svg">
<rect x="0.5" y="0.5" width="196.772" height="54" rx="9.5" fill="#2A3647"/>
<path d="M29.1019 19.7273V35H26.3129L19.6683 25.3874H19.5565V35H16.3274V19.7273H19.1612L25.7536 29.3324H25.8878V19.7273H29.1019ZM36.9303 35.2237C35.752 35.2237 34.7378 34.9851 33.8877 34.5078C33.0425 34.0256 32.3912 33.3445 31.9339 32.4645C31.4765 31.5795 31.2478 30.533 31.2478 29.3249C31.2478 28.1467 31.4765 27.1126 31.9339 26.2227C32.3912 25.3327 33.0351 24.6392 33.8653 24.142C34.7006 23.6449 35.68 23.3963 36.8035 23.3963C37.5592 23.3963 38.2627 23.5181 38.914 23.7617C39.5702 24.0004 40.142 24.3608 40.6292 24.843C41.1214 25.3253 41.5042 25.9318 41.7776 26.6626C42.051 27.3885 42.1878 28.2386 42.1878 29.2131V30.0856H32.5155V28.1168H39.1974C39.1974 27.6594 39.0979 27.2543 38.8991 26.9013C38.7002 26.5483 38.4243 26.2724 38.0713 26.0735C37.7233 25.8697 37.3181 25.7678 36.8557 25.7678C36.3735 25.7678 35.9459 25.8796 35.5731 26.1033C35.2052 26.3221 34.9168 26.6179 34.708 26.9908C34.4992 27.3587 34.3923 27.7688 34.3873 28.2212V30.093C34.3873 30.6598 34.4917 31.1495 34.7006 31.5621C34.9143 31.9748 35.2151 32.293 35.6029 32.5167C35.9907 32.7404 36.4506 32.8523 36.9825 32.8523C37.3355 32.8523 37.6586 32.8026 37.952 32.7031C38.2453 32.6037 38.4964 32.4545 38.7052 32.2557C38.914 32.0568 39.0731 31.8132 39.1824 31.5249L42.1207 31.7188C41.9715 32.4247 41.6657 33.0412 41.2034 33.5682C40.746 34.0902 40.1544 34.4979 39.4285 34.7912C38.7077 35.0795 37.8749 35.2237 36.9303 35.2237ZM46.4385 35L43.3213 23.5455H46.5354L48.3103 31.2415H48.4147L50.2641 23.5455H53.4186L55.2979 31.1967H55.3948L57.1398 23.5455H60.3465L57.2368 35H53.8735L51.9047 27.7962H51.7631L49.7943 35H46.4385ZM72.077 35.2237C70.9037 35.2237 69.8944 34.9751 69.0493 34.478C68.2091 33.9759 67.5628 33.2798 67.1104 32.3899C66.6629 31.5 66.4392 30.4759 66.4392 29.3175C66.4392 28.1442 66.6654 27.1151 67.1178 26.2301C67.5752 25.3402 68.224 24.6467 69.0642 24.1495C69.9044 23.6474 70.9037 23.3963 72.0621 23.3963C73.0613 23.3963 73.9363 23.5778 74.6871 23.9407C75.4378 24.3036 76.0319 24.8132 76.4694 25.4695C76.9069 26.1257 77.148 26.8963 77.1927 27.7812H74.1949C74.1104 27.2095 73.8866 26.7496 73.5237 26.4016C73.1657 26.0487 72.6959 25.8722 72.1143 25.8722C71.6221 25.8722 71.192 26.0064 70.8241 26.2749C70.4612 26.5384 70.1778 26.9237 69.974 27.4308C69.7702 27.9379 69.6682 28.5518 69.6682 29.2727C69.6682 30.0036 69.7677 30.625 69.9665 31.1371C70.1704 31.6491 70.4562 32.0394 70.8241 32.3079C71.192 32.5763 71.6221 32.7106 72.1143 32.7106C72.4772 32.7106 72.8028 32.636 73.0912 32.4869C73.3845 32.3377 73.6256 32.1214 73.8145 31.8381C74.0084 31.5497 74.1352 31.2042 74.1949 30.8015H77.1927C77.143 31.6765 76.9044 32.4471 76.4768 33.1133C76.0542 33.7745 75.4701 34.2915 74.7243 34.6644C73.9786 35.0373 73.0961 35.2237 72.077 35.2237ZM84.4022 35.2237C83.2438 35.2237 82.242 34.9776 81.3968 34.4854C80.5566 33.9883 79.9078 33.2972 79.4505 32.4123C78.9931 31.5224 78.7644 30.4908 78.7644 29.3175C78.7644 28.1342 78.9931 27.1001 79.4505 26.2152C79.9078 25.3253 80.5566 24.6342 81.3968 24.142C82.242 23.6449 83.2438 23.3963 84.4022 23.3963C85.5605 23.3963 86.5598 23.6449 87.4 24.142C88.2452 24.6342 88.8965 25.3253 89.3539 26.2152C89.8113 27.1001 90.04 28.1342 90.04 29.3175C90.04 30.4908 89.8113 31.5224 89.3539 32.4123C88.8965 33.2972 88.2452 33.9883 87.4 34.4854C86.5598 34.9776 85.5605 35.2237 84.4022 35.2237ZM84.4171 32.7628C84.9441 32.7628 85.3841 32.6136 85.737 32.3153C86.09 32.0121 86.356 31.5994 86.535 31.0774C86.7189 30.5554 86.8109 29.9613 86.8109 29.2951C86.8109 28.6289 86.7189 28.0348 86.535 27.5128C86.356 26.9908 86.09 26.5781 85.737 26.2749C85.3841 25.9716 84.9441 25.82 84.4171 25.82C83.8851 25.82 83.4377 25.9716 83.0748 26.2749C82.7168 26.5781 82.4458 26.9908 82.2619 27.5128C82.0829 28.0348 81.9934 28.6289 81.9934 29.2951C81.9934 29.9613 82.0829 30.5554 82.2619 31.0774C82.4458 31.5994 82.7168 32.0121 83.0748 32.3153C83.4377 32.6136 83.8851 32.7628 84.4171 32.7628ZM95.2825 28.3778V35H92.1056V23.5455H95.1333V25.5664H95.2676C95.5211 24.9002 95.9462 24.3732 96.5428 23.9854C97.1394 23.5927 97.8627 23.3963 98.7129 23.3963C99.5083 23.3963 100.202 23.5703 100.794 23.9183C101.385 24.2663 101.845 24.7635 102.173 25.4098C102.501 26.0511 102.665 26.8168 102.665 27.7067V35H99.4885V28.2734C99.4934 27.5724 99.3145 27.0256 98.9515 26.6328C98.5886 26.2351 98.089 26.0362 97.4526 26.0362C97.025 26.0362 96.6472 26.1282 96.3191 26.3121C95.9959 26.4961 95.7424 26.7646 95.5584 27.1175C95.3794 27.4656 95.2875 27.8857 95.2825 28.3778ZM111.262 23.5455V25.9318H104.364V23.5455H111.262ZM105.93 20.8011H109.107V31.4801C109.107 31.7734 109.151 32.0021 109.241 32.1662C109.33 32.3253 109.455 32.4371 109.614 32.5018C109.778 32.5664 109.967 32.5987 110.18 32.5987C110.33 32.5987 110.479 32.5863 110.628 32.5614C110.777 32.5316 110.891 32.5092 110.971 32.4943L111.471 34.8583C111.312 34.908 111.088 34.9652 110.799 35.0298C110.511 35.0994 110.161 35.1417 109.748 35.1566C108.982 35.1864 108.311 35.0845 107.734 34.8509C107.163 34.6172 106.718 34.2543 106.4 33.7621C106.081 33.2699 105.925 32.6484 105.93 31.8977V20.8011ZM116.598 35.2163C115.867 35.2163 115.215 35.0895 114.644 34.8359C114.072 34.5774 113.62 34.1971 113.286 33.695C112.958 33.1879 112.794 32.5565 112.794 31.8008C112.794 31.1644 112.911 30.63 113.145 30.1974C113.378 29.7649 113.697 29.4169 114.099 29.1534C114.502 28.8899 114.959 28.6911 115.472 28.5568C115.989 28.4226 116.53 28.3281 117.097 28.2734C117.763 28.2038 118.3 28.1392 118.708 28.0795C119.116 28.0149 119.411 27.9205 119.595 27.7962C119.779 27.6719 119.871 27.4879 119.871 27.2443V27.1996C119.871 26.7273 119.722 26.3619 119.424 26.1033C119.131 25.8448 118.713 25.7156 118.171 25.7156C117.599 25.7156 117.144 25.8423 116.806 26.0959C116.468 26.3445 116.245 26.6577 116.135 27.0355L113.197 26.7969C113.346 26.1009 113.639 25.4993 114.077 24.9922C114.514 24.4801 115.079 24.0874 115.77 23.8139C116.466 23.5355 117.271 23.3963 118.186 23.3963C118.822 23.3963 119.431 23.4709 120.013 23.62C120.6 23.7692 121.119 24.0004 121.572 24.3136C122.029 24.6268 122.389 25.0295 122.653 25.5217C122.916 26.0089 123.048 26.593 123.048 27.2741V35H120.035V33.4116H119.946C119.762 33.7695 119.516 34.0852 119.208 34.3587C118.899 34.6271 118.529 34.8384 118.097 34.9925C117.664 35.1417 117.164 35.2163 116.598 35.2163ZM117.507 33.0238C117.975 33.0238 118.387 32.9318 118.745 32.7479C119.103 32.5589 119.384 32.3054 119.588 31.9872C119.792 31.669 119.894 31.3086 119.894 30.9059V29.6903C119.794 29.755 119.658 29.8146 119.484 29.8693C119.315 29.919 119.123 29.9663 118.909 30.011C118.696 30.0508 118.482 30.0881 118.268 30.1229C118.054 30.1527 117.86 30.18 117.686 30.2049C117.313 30.2596 116.988 30.3466 116.709 30.4659C116.431 30.5852 116.215 30.7468 116.061 30.9506C115.907 31.1495 115.829 31.3981 115.829 31.6964C115.829 32.1289 115.986 32.4595 116.299 32.6882C116.617 32.9119 117.02 33.0238 117.507 33.0238ZM130.688 35.2237C129.515 35.2237 128.506 34.9751 127.661 34.478C126.82 33.9759 126.174 33.2798 125.722 32.3899C125.274 31.5 125.051 30.4759 125.051 29.3175C125.051 28.1442 125.277 27.1151 125.729 26.2301C126.187 25.3402 126.835 24.6467 127.676 24.1495C128.516 23.6474 129.515 23.3963 130.673 23.3963C131.673 23.3963 132.548 23.5778 133.298 23.9407C134.049 24.3036 134.643 24.8132 135.081 25.4695C135.518 26.1257 135.759 26.8963 135.804 27.7812H132.806C132.722 27.2095 132.498 26.7496 132.135 26.4016C131.777 26.0487 131.307 25.8722 130.726 25.8722C130.233 25.8722 129.803 26.0064 129.435 26.2749C129.073 26.5384 128.789 26.9237 128.585 27.4308C128.381 27.9379 128.28 28.5518 128.28 29.2727C128.28 30.0036 128.379 30.625 128.578 31.1371C128.782 31.6491 129.068 32.0394 129.435 32.3079C129.803 32.5763 130.233 32.7106 130.726 32.7106C131.089 32.7106 131.414 32.636 131.703 32.4869C131.996 32.3377 132.237 32.1214 132.426 31.8381C132.62 31.5497 132.747 31.2042 132.806 30.8015H135.804C135.754 31.6765 135.516 32.4471 135.088 33.1133C134.666 33.7745 134.081 34.2915 133.336 34.6644C132.59 35.0373 131.707 35.2237 130.688 35.2237ZM143.931 23.5455V25.9318H137.033V23.5455H143.931ZM138.599 20.8011H141.776V31.4801C141.776 31.7734 141.82 32.0021 141.91 32.1662C141.999 32.3253 142.124 32.4371 142.283 32.5018C142.447 32.5664 142.636 32.5987 142.849 32.5987C142.999 32.5987 143.148 32.5863 143.297 32.5614C143.446 32.5316 143.56 32.5092 143.64 32.4943L144.14 34.8583C143.98 34.908 143.757 34.9652 143.468 35.0298C143.18 35.0994 142.83 35.1417 142.417 35.1566C141.651 35.1864 140.98 35.0845 140.403 34.8509C139.832 34.6172 139.387 34.2543 139.069 33.7621C138.75 33.2699 138.594 32.6484 138.599 31.8977V20.8011Z" fill="white"/>
<path d="M165.728 28.6363C164.38 28.6363 163.061 28.2364 161.94 27.4872C160.819 26.7381 159.945 25.6732 159.429 24.4274C158.913 23.1815 158.778 21.8106 159.041 20.488C159.304 19.1654 159.953 17.9505 160.907 16.997C161.86 16.0435 163.075 15.3941 164.398 15.131C165.721 14.8679 167.091 15.003 168.337 15.519C169.583 16.0351 170.648 16.909 171.397 18.0302C172.146 19.1514 172.546 20.4697 172.546 21.8182C172.542 23.6252 171.823 25.3571 170.545 26.6349C169.267 27.9127 167.535 28.6323 165.728 28.6363V28.6363ZM165.728 16.5151C164.679 16.5151 163.654 16.8262 162.782 17.4089C161.91 17.9916 161.23 18.8198 160.829 19.7888C160.427 20.7578 160.322 21.824 160.527 22.8527C160.732 23.8814 161.237 24.8263 161.978 25.568C162.72 26.3096 163.665 26.8147 164.694 27.0193C165.722 27.2239 166.788 27.1189 167.757 26.7175C168.726 26.3161 169.555 25.6364 170.137 24.7644C170.72 23.8923 171.031 22.867 171.031 21.8182C171.031 20.4117 170.472 19.0629 169.478 18.0684C168.483 17.0739 167.135 16.5151 165.728 16.5151V16.5151Z" fill="white"/>
<path d="M171.03 40H155L155.136 39.1212C155.47 36.4734 156.745 34.0339 158.729 32.2482C160.712 30.4624 163.271 29.4493 165.939 29.394C167.319 29.3819 168.688 29.6392 169.97 30.1515C170.065 30.1877 170.152 30.2427 170.226 30.3132C170.299 30.3838 170.358 30.4685 170.398 30.5623C170.438 30.656 170.459 30.7569 170.459 30.8589C170.459 30.9608 170.438 31.0618 170.399 31.1556C170.359 31.2495 170.301 31.3344 170.227 31.4052C170.154 31.4759 170.067 31.5312 169.972 31.5676C169.876 31.604 169.775 31.6208 169.673 31.617C169.571 31.6132 169.471 31.5889 169.379 31.5455C168.289 31.0897 167.12 30.8529 165.939 30.8485C163.792 30.902 161.726 31.6794 160.076 33.0545C158.426 34.4296 157.288 36.3218 156.848 38.4242H171.076C171.277 38.4242 171.469 38.504 171.611 38.6461C171.753 38.7882 171.833 38.9809 171.833 39.1818C171.833 39.3827 171.753 39.5754 171.611 39.7175C171.469 39.8596 171.277 39.9394 171.076 39.9394L171.03 40Z" fill="white"/>
<path d="M176.712 27.8782C175.541 27.879 174.397 28.2185 173.415 28.8557C172.434 29.4929 171.658 30.4006 171.181 31.4691C170.828 32.2441 170.647 33.0868 170.651 33.9388C170.651 35.1374 171.006 36.3092 171.672 37.3058C172.338 38.3025 173.285 39.0793 174.392 39.538C175.5 39.9967 176.718 40.1167 177.894 39.8829C179.07 39.649 180.149 39.0718 180.997 38.2242C181.845 37.3766 182.422 36.2968 182.656 35.1211C182.89 33.9455 182.769 32.7269 182.311 31.6195C181.852 30.512 181.075 29.5655 180.079 28.8996C179.082 28.2336 177.91 27.8782 176.712 27.8782ZM179.742 34.7569H177.53V36.969C177.53 37.186 177.444 37.3941 177.29 37.5476C177.137 37.701 176.929 37.7872 176.712 37.7872C176.495 37.7872 176.286 37.701 176.133 37.5476C175.98 37.3941 175.893 37.186 175.893 36.969V34.6963H173.681C173.574 34.6963 173.467 34.6752 173.368 34.634C173.269 34.5929 173.179 34.5327 173.103 34.4567C173.027 34.3807 172.966 34.2905 172.925 34.1913C172.884 34.092 172.863 33.9856 172.863 33.8782C172.862 33.7321 172.901 33.5886 172.976 33.4631C173.051 33.3376 173.159 33.2349 173.287 33.166C173.404 33.0904 173.542 33.0533 173.681 33.06H175.893V30.9085C175.893 30.6915 175.98 30.4834 176.133 30.3299C176.286 30.1765 176.495 30.0903 176.712 30.0903C176.929 30.0903 177.137 30.1765 177.29 30.3299C177.444 30.4834 177.53 30.6915 177.53 30.9085V33.1812H179.742C179.959 33.1812 180.167 33.2674 180.32 33.4208C180.474 33.5743 180.56 33.7824 180.56 33.9994C180.56 34.2164 180.474 34.4245 180.32 34.5779C180.167 34.7313 179.959 34.8175 179.742 34.8175V34.7569Z" fill="white"/>
<rect x="0.5" y="0.5" width="196.772" height="54" rx="9.5" stroke="#2A3647"/>
</svg>
