<svg width="104" height="27" viewBox="0 0 104 27" fill="none" xmlns="http://www.w3.org/2000/svg">
<rect width="104" height="27" rx="8" fill="#2A3647"/>
<path d="M27.9091 19V7.36364H31.9773C32.7879 7.36364 33.4564 7.50379 33.983 7.78409C34.5095 8.06061 34.9015 8.43371 35.1591 8.90341C35.4167 9.36932 35.5455 9.88636 35.5455 10.4545C35.5455 10.9545 35.4564 11.3674 35.2784 11.6932C35.1042 12.0189 34.8731 12.2765 34.5852 12.4659C34.3011 12.6553 33.9924 12.7955 33.6591 12.8864V13C34.0152 13.0227 34.3731 13.1477 34.733 13.375C35.0928 13.6023 35.3939 13.928 35.6364 14.3523C35.8788 14.7765 36 15.2955 36 15.9091C36 16.4924 35.8674 17.017 35.6023 17.483C35.3371 17.9489 34.9186 18.3182 34.3466 18.5909C33.7746 18.8636 33.0303 19 32.1136 19H27.9091ZM29.3182 17.75H32.1136C33.0341 17.75 33.6875 17.572 34.0739 17.2159C34.464 16.8561 34.6591 16.4205 34.6591 15.9091C34.6591 15.5152 34.5587 15.1515 34.358 14.8182C34.1572 14.4811 33.8712 14.2121 33.5 14.0114C33.1288 13.8068 32.6894 13.7045 32.1818 13.7045H29.3182V17.75ZM29.3182 12.4773H31.9318C32.3561 12.4773 32.7386 12.3939 33.0795 12.2273C33.4242 12.0606 33.697 11.8258 33.8977 11.5227C34.1023 11.2197 34.2045 10.8636 34.2045 10.4545C34.2045 9.94318 34.0265 9.50947 33.6705 9.15341C33.3144 8.79356 32.75 8.61364 31.9773 8.61364H29.3182V12.4773ZM43.6335 15.4318V10.2727H44.9744V19H43.6335V17.5227H43.5426C43.3381 17.9659 43.0199 18.3428 42.5881 18.6534C42.1563 18.9602 41.6108 19.1136 40.9517 19.1136C40.4062 19.1136 39.9214 18.9943 39.4972 18.7557C39.0729 18.5133 38.7396 18.1496 38.4972 17.6648C38.2547 17.1761 38.1335 16.5606 38.1335 15.8182V10.2727H39.4744V15.7273C39.4744 16.3636 39.6525 16.8712 40.0085 17.25C40.3684 17.6288 40.8267 17.8182 41.3835 17.8182C41.7169 17.8182 42.0559 17.733 42.4006 17.5625C42.7491 17.392 43.0407 17.1307 43.2756 16.7784C43.5142 16.4261 43.6335 15.9773 43.6335 15.4318ZM51.2259 10.2727V11.4091H46.7031V10.2727H51.2259ZM48.0213 8.18182H49.3622V16.5C49.3622 16.8788 49.4171 17.1629 49.527 17.3523C49.6406 17.5379 49.7846 17.6629 49.9588 17.7273C50.1368 17.7879 50.3243 17.8182 50.5213 17.8182C50.669 17.8182 50.7902 17.8106 50.8849 17.7955C50.9796 17.7765 51.0554 17.7614 51.1122 17.75L51.3849 18.9545C51.294 18.9886 51.1671 19.0227 51.0043 19.0568C50.8414 19.0947 50.6349 19.1136 50.3849 19.1136C50.0062 19.1136 49.6349 19.0322 49.2713 18.8693C48.9115 18.7064 48.6122 18.4583 48.3736 18.125C48.1387 17.7917 48.0213 17.3712 48.0213 16.8636V8.18182ZM57.0384 10.2727V11.4091H52.5156V10.2727H57.0384ZM53.8338 8.18182H55.1747V16.5C55.1747 16.8788 55.2296 17.1629 55.3395 17.3523C55.4531 17.5379 55.5971 17.6629 55.7713 17.7273C55.9493 17.7879 56.1368 17.8182 56.3338 17.8182C56.4815 17.8182 56.6027 17.8106 56.6974 17.7955C56.7921 17.7765 56.8679 17.7614 56.9247 17.75L57.1974 18.9545C57.1065 18.9886 56.9796 19.0227 56.8168 19.0568C56.6539 19.0947 56.4474 19.1136 56.1974 19.1136C55.8187 19.1136 55.4474 19.0322 55.0838 18.8693C54.724 18.7064 54.4247 18.4583 54.1861 18.125C53.9512 17.7917 53.8338 17.3712 53.8338 16.8636V8.18182ZM62.5071 19.1818C61.7192 19.1818 61.0279 18.9943 60.4332 18.6193C59.8423 18.2443 59.3802 17.7197 59.0469 17.0455C58.7173 16.3712 58.5526 15.5833 58.5526 14.6818C58.5526 13.7727 58.7173 12.9792 59.0469 12.3011C59.3802 11.6231 59.8423 11.0966 60.4332 10.7216C61.0279 10.3466 61.7192 10.1591 62.5071 10.1591C63.295 10.1591 63.9844 10.3466 64.5753 10.7216C65.17 11.0966 65.6321 11.6231 65.9616 12.3011C66.295 12.9792 66.4616 13.7727 66.4616 14.6818C66.4616 15.5833 66.295 16.3712 65.9616 17.0455C65.6321 17.7197 65.17 18.2443 64.5753 18.6193C63.9844 18.9943 63.295 19.1818 62.5071 19.1818ZM62.5071 17.9773C63.1056 17.9773 63.598 17.8239 63.9844 17.517C64.3707 17.2102 64.6567 16.8068 64.8423 16.3068C65.0279 15.8068 65.1207 15.2652 65.1207 14.6818C65.1207 14.0985 65.0279 13.5549 64.8423 13.0511C64.6567 12.5473 64.3707 12.1402 63.9844 11.8295C63.598 11.5189 63.1056 11.3636 62.5071 11.3636C61.9086 11.3636 61.4162 11.5189 61.0298 11.8295C60.6435 12.1402 60.3575 12.5473 60.1719 13.0511C59.9863 13.5549 59.8935 14.0985 59.8935 14.6818C59.8935 15.2652 59.9863 15.8068 60.1719 16.3068C60.3575 16.8068 60.6435 17.2102 61.0298 17.517C61.4162 17.8239 61.9086 17.9773 62.5071 17.9773ZM69.8494 13.75V19H68.5085V10.2727H69.804V11.6364H69.9176C70.1222 11.1932 70.4328 10.8371 70.8494 10.5682C71.2661 10.2955 71.804 10.1591 72.4631 10.1591C73.054 10.1591 73.571 10.2803 74.0142 10.5227C74.4574 10.7614 74.8021 11.125 75.0483 11.6136C75.2945 12.0985 75.4176 12.7121 75.4176 13.4545V19H74.0767V13.5455C74.0767 12.8598 73.8987 12.3258 73.5426 11.9432C73.1866 11.5568 72.6979 11.3636 72.0767 11.3636C71.6487 11.3636 71.2661 11.4564 70.929 11.642C70.5956 11.8277 70.3324 12.0985 70.1392 12.4545C69.946 12.8106 69.8494 13.2424 69.8494 13.75Z" fill="white"/>
</svg>
