<svg width="187" height="55" viewBox="0 0 187 55" fill="none" xmlns="http://www.w3.org/2000/svg">
<rect width="187" height="55" rx="10" fill="#2A3647"/>
<path d="M29.8029 25.0742H26.5366C26.4769 24.6516 26.3551 24.2763 26.1712 23.9482C25.9872 23.6151 25.7511 23.3317 25.4627 23.098C25.1744 22.8643 24.8413 22.6854 24.4634 22.5611C24.0906 22.4368 23.6854 22.3746 23.2479 22.3746C22.4574 22.3746 21.7688 22.571 21.1822 22.9638C20.5955 23.3516 20.1406 23.9183 19.8175 24.6641C19.4943 25.4048 19.3327 26.3047 19.3327 27.3636C19.3327 28.4524 19.4943 29.3672 19.8175 30.108C20.1456 30.8487 20.603 31.408 21.1896 31.7859C21.7763 32.1637 22.4549 32.3526 23.2255 32.3526C23.658 32.3526 24.0582 32.2955 24.4261 32.1811C24.799 32.0668 25.1296 31.9002 25.418 31.6815C25.7063 31.4577 25.945 31.1868 26.1339 30.8686C26.3278 30.5504 26.462 30.1875 26.5366 29.7798L29.8029 29.7947C29.7184 30.4957 29.5071 31.1719 29.169 31.8232C28.8359 32.4695 28.386 33.0487 27.8192 33.5607C27.2575 34.0678 26.5863 34.4705 25.8058 34.7688C25.0302 35.0621 24.1527 35.2088 23.1733 35.2088C21.8111 35.2088 20.593 34.9006 19.5192 34.2841C18.4503 33.6676 17.6051 32.7752 16.9837 31.6069C16.3672 30.4386 16.0589 29.0241 16.0589 27.3636C16.0589 25.6982 16.3722 24.2812 16.9986 23.1129C17.625 21.9446 18.4751 21.0547 19.549 20.4432C20.6229 19.8267 21.831 19.5185 23.1733 19.5185C24.0582 19.5185 24.8786 19.6428 25.6342 19.8913C26.3949 20.1399 27.0685 20.5028 27.6552 20.9801C28.2418 21.4524 28.7191 22.0316 29.087 22.7177C29.4599 23.4038 29.6985 24.1893 29.8029 25.0742ZM32.0588 35V23.5455H35.1387V25.544H35.258C35.4668 24.8331 35.8173 24.2962 36.3095 23.9332C36.8017 23.5653 37.3684 23.3814 38.0098 23.3814C38.1689 23.3814 38.3404 23.3913 38.5243 23.4112C38.7083 23.4311 38.8699 23.4585 39.0091 23.4933V26.3121C38.8599 26.2674 38.6536 26.2276 38.3901 26.1928C38.1266 26.158 37.8855 26.1406 37.6667 26.1406C37.1994 26.1406 36.7818 26.2425 36.4139 26.4464C36.051 26.6452 35.7626 26.9237 35.5488 27.2816C35.34 27.6396 35.2356 28.0522 35.2356 28.5195V35H32.0588ZM45.3385 35.2237C44.1602 35.2237 43.146 34.9851 42.2959 34.5078C41.4507 34.0256 40.7994 33.3445 40.3421 32.4645C39.8847 31.5795 39.656 30.533 39.656 29.3249C39.656 28.1467 39.8847 27.1126 40.3421 26.2227C40.7994 25.3327 41.4433 24.6392 42.2735 24.142C43.1088 23.6449 44.0882 23.3963 45.2117 23.3963C45.9674 23.3963 46.6709 23.5181 47.3222 23.7617C47.9784 24.0004 48.5502 24.3608 49.0374 24.843C49.5296 25.3253 49.9124 25.9318 50.1858 26.6626C50.4593 27.3885 50.596 28.2386 50.596 29.2131V30.0856H40.9237V28.1168H47.6056C47.6056 27.6594 47.5061 27.2543 47.3073 26.9013C47.1084 26.5483 46.8325 26.2724 46.4795 26.0735C46.1315 25.8697 45.7263 25.7678 45.2639 25.7678C44.7817 25.7678 44.3541 25.8796 43.9813 26.1033C43.6134 26.3221 43.325 26.6179 43.1162 26.9908C42.9074 27.3587 42.8005 27.7688 42.7955 28.2212V30.093C42.7955 30.6598 42.8999 31.1495 43.1088 31.5621C43.3225 31.9748 43.6233 32.293 44.0111 32.5167C44.3989 32.7404 44.8588 32.8523 45.3907 32.8523C45.7437 32.8523 46.0669 32.8026 46.3602 32.7031C46.6535 32.6037 46.9046 32.4545 47.1134 32.2557C47.3222 32.0568 47.4813 31.8132 47.5906 31.5249L50.5289 31.7188C50.3797 32.4247 50.074 33.0412 49.6116 33.5682C49.1542 34.0902 48.5626 34.4979 47.8367 34.7912C47.1159 35.0795 46.2831 35.2237 45.3385 35.2237ZM55.9355 35.2163C55.2046 35.2163 54.5534 35.0895 53.9816 34.8359C53.4099 34.5774 52.9575 34.1971 52.6244 33.695C52.2963 33.1879 52.1322 32.5565 52.1322 31.8008C52.1322 31.1644 52.249 30.63 52.4827 30.1974C52.7164 29.7649 53.0345 29.4169 53.4372 29.1534C53.8399 28.8899 54.2973 28.6911 54.8094 28.5568C55.3264 28.4226 55.8683 28.3281 56.4351 28.2734C57.1013 28.2038 57.6382 28.1392 58.0459 28.0795C58.4536 28.0149 58.7494 27.9205 58.9333 27.7962C59.1173 27.6719 59.2093 27.4879 59.2093 27.2443V27.1996C59.2093 26.7273 59.0601 26.3619 58.7618 26.1033C58.4685 25.8448 58.0509 25.7156 57.509 25.7156C56.9372 25.7156 56.4823 25.8423 56.1443 26.0959C55.8062 26.3445 55.5825 26.6577 55.4731 27.0355L52.5349 26.7969C52.684 26.1009 52.9774 25.4993 53.4149 24.9922C53.8524 24.4801 54.4166 24.0874 55.1077 23.8139C55.8037 23.5355 56.6091 23.3963 57.5239 23.3963C58.1602 23.3963 58.7693 23.4709 59.3509 23.62C59.9376 23.7692 60.4571 24.0004 60.9095 24.3136C61.3669 24.6268 61.7274 25.0295 61.9909 25.5217C62.2544 26.0089 62.3861 26.593 62.3861 27.2741V35H59.3733V33.4116H59.2838C59.0999 33.7695 58.8538 34.0852 58.5455 34.3587C58.2373 34.6271 57.8669 34.8384 57.4344 34.9925C57.0019 35.1417 56.5022 35.2163 55.9355 35.2163ZM56.8453 33.0238C57.3126 33.0238 57.7252 32.9318 58.0832 32.7479C58.4411 32.5589 58.722 32.3054 58.9259 31.9872C59.1297 31.669 59.2316 31.3086 59.2316 30.9059V29.6903C59.1322 29.755 58.9955 29.8146 58.8215 29.8693C58.6524 29.919 58.461 29.9663 58.2472 30.011C58.0335 30.0508 57.8197 30.0881 57.6059 30.1229C57.3921 30.1527 57.1982 30.18 57.0242 30.2049C56.6514 30.2596 56.3257 30.3466 56.0473 30.4659C55.7689 30.5852 55.5526 30.7468 55.3985 30.9506C55.2444 31.1495 55.1673 31.3981 55.1673 31.6964C55.1673 32.1289 55.324 32.4595 55.6372 32.6882C55.9553 32.9119 56.358 33.0238 56.8453 33.0238ZM70.9434 23.5455V25.9318H64.0454V23.5455H70.9434ZM65.6114 20.8011H68.7883V31.4801C68.7883 31.7734 68.833 32.0021 68.9225 32.1662C69.012 32.3253 69.1363 32.4371 69.2954 32.5018C69.4594 32.5664 69.6483 32.5987 69.8621 32.5987C70.0113 32.5987 70.1604 32.5863 70.3096 32.5614C70.4587 32.5316 70.5731 32.5092 70.6526 32.4943L71.1523 34.8583C70.9932 34.908 70.7694 34.9652 70.4811 35.0298C70.1927 35.0994 69.8422 35.1417 69.4296 35.1566C68.664 35.1864 67.9928 35.0845 67.4161 34.8509C66.8444 34.6172 66.3994 34.2543 66.0812 33.7621C65.7631 33.2699 65.6064 32.6484 65.6114 31.8977V20.8011ZM78.11 35.2237C76.9317 35.2237 75.9175 34.9851 75.0674 34.5078C74.2222 34.0256 73.5709 33.3445 73.1135 32.4645C72.6562 31.5795 72.4275 30.533 72.4275 29.3249C72.4275 28.1467 72.6562 27.1126 73.1135 26.2227C73.5709 25.3327 74.2148 24.6392 75.045 24.142C75.8802 23.6449 76.8596 23.3963 77.9832 23.3963C78.7389 23.3963 79.4424 23.5181 80.0937 23.7617C80.7499 24.0004 81.3216 24.3608 81.8089 24.843C82.301 25.3253 82.6839 25.9318 82.9573 26.6626C83.2307 27.3885 83.3675 28.2386 83.3675 29.2131V30.0856H73.6952V28.1168H80.377C80.377 27.6594 80.2776 27.2543 80.0787 26.9013C79.8799 26.5483 79.604 26.2724 79.251 26.0735C78.903 25.8697 78.4978 25.7678 78.0354 25.7678C77.5532 25.7678 77.1256 25.8796 76.7528 26.1033C76.3849 26.3221 76.0965 26.6179 75.8877 26.9908C75.6789 27.3587 75.572 27.7688 75.567 28.2212V30.093C75.567 30.6598 75.6714 31.1495 75.8802 31.5621C76.094 31.9748 76.3948 32.293 76.7826 32.5167C77.1704 32.7404 77.6302 32.8523 78.1622 32.8523C78.5152 32.8523 78.8383 32.8026 79.1317 32.7031C79.425 32.6037 79.676 32.4545 79.8849 32.2557C80.0937 32.0568 80.2528 31.8132 80.3621 31.5249L83.3003 31.7188C83.1512 32.4247 82.8454 33.0412 82.3831 33.5682C81.9257 34.0902 81.3341 34.4979 80.6082 34.7912C79.8873 35.0795 79.0546 35.2237 78.11 35.2237ZM89.7789 22.3896V19.7273H102.322V22.3896H97.6465V35H94.4547V22.3896H89.7789ZM106.036 35.2163C105.305 35.2163 104.654 35.0895 104.082 34.8359C103.51 34.5774 103.058 34.1971 102.725 33.695C102.397 33.1879 102.233 32.5565 102.233 31.8008C102.233 31.1644 102.35 30.63 102.583 30.1974C102.817 29.7649 103.135 29.4169 103.538 29.1534C103.941 28.8899 104.398 28.6911 104.91 28.5568C105.427 28.4226 105.969 28.3281 106.536 28.2734C107.202 28.2038 107.739 28.1392 108.146 28.0795C108.554 28.0149 108.85 27.9205 109.034 27.7962C109.218 27.6719 109.31 27.4879 109.31 27.2443V27.1996C109.31 26.7273 109.161 26.3619 108.862 26.1033C108.569 25.8448 108.151 25.7156 107.61 25.7156C107.038 25.7156 106.583 25.8423 106.245 26.0959C105.907 26.3445 105.683 26.6577 105.574 27.0355L102.635 26.7969C102.785 26.1009 103.078 25.4993 103.515 24.9922C103.953 24.4801 104.517 24.0874 105.208 23.8139C105.904 23.5355 106.71 23.3963 107.624 23.3963C108.261 23.3963 108.87 23.4709 109.452 23.62C110.038 23.7692 110.558 24.0004 111.01 24.3136C111.468 24.6268 111.828 25.0295 112.091 25.5217C112.355 26.0089 112.487 26.593 112.487 27.2741V35H109.474V33.4116H109.384C109.2 33.7695 108.954 34.0852 108.646 34.3587C108.338 34.6271 107.968 34.8384 107.535 34.9925C107.102 35.1417 106.603 35.2163 106.036 35.2163ZM106.946 33.0238C107.413 33.0238 107.826 32.9318 108.184 32.7479C108.542 32.5589 108.823 32.3054 109.026 31.9872C109.23 31.669 109.332 31.3086 109.332 30.9059V29.6903C109.233 29.755 109.096 29.8146 108.922 29.8693C108.753 29.919 108.562 29.9663 108.348 30.011C108.134 30.0508 107.92 30.0881 107.706 30.1229C107.493 30.1527 107.299 30.18 107.125 30.2049C106.752 30.2596 106.426 30.3466 106.148 30.4659C105.869 30.5852 105.653 30.7468 105.499 30.9506C105.345 31.1495 105.268 31.3981 105.268 31.6964C105.268 32.1289 105.425 32.4595 105.738 32.6882C106.056 32.9119 106.459 33.0238 106.946 33.0238ZM124.482 26.8118L121.574 26.9908C121.524 26.7422 121.417 26.5185 121.253 26.3196C121.089 26.1158 120.873 25.9542 120.604 25.8349C120.341 25.7106 120.025 25.6484 119.657 25.6484C119.165 25.6484 118.75 25.7528 118.412 25.9616C118.074 26.1655 117.904 26.4389 117.904 26.782C117.904 27.0554 118.014 27.2866 118.233 27.4755C118.451 27.6644 118.827 27.8161 119.359 27.9304L121.432 28.348C122.545 28.5767 123.376 28.9446 123.923 29.4517C124.469 29.9588 124.743 30.625 124.743 31.4503C124.743 32.201 124.522 32.8597 124.079 33.4265C123.642 33.9933 123.04 34.4357 122.275 34.7539C121.514 35.0671 120.636 35.2237 119.642 35.2237C118.126 35.2237 116.918 34.908 116.018 34.2766C115.123 33.6403 114.598 32.7752 114.444 31.6815L117.569 31.5174C117.663 31.9798 117.892 32.3327 118.255 32.5763C118.618 32.815 119.083 32.9343 119.65 32.9343C120.206 32.9343 120.654 32.8274 120.992 32.6136C121.335 32.3949 121.509 32.114 121.514 31.771C121.509 31.4826 121.387 31.2464 121.148 31.0625C120.91 30.8736 120.542 30.7294 120.045 30.63L118.061 30.2347C116.942 30.011 116.11 29.6232 115.563 29.0714C115.021 28.5195 114.75 27.8161 114.75 26.9609C114.75 26.2251 114.949 25.5913 115.347 25.0593C115.749 24.5273 116.314 24.1172 117.039 23.8288C117.77 23.5405 118.625 23.3963 119.605 23.3963C121.051 23.3963 122.19 23.7021 123.02 24.3136C123.855 24.9251 124.343 25.7578 124.482 26.8118ZM129.622 31.7038L129.629 27.8931H130.092L133.761 23.5455H137.407L132.478 29.3026H131.725L129.622 31.7038ZM126.743 35V19.7273H129.92V35H126.743ZM133.902 35L130.532 30.011L132.65 27.7663L137.624 35H133.902Z" fill="white"/>
<path d="M152 27.5L158 33.5L168 21.5" stroke="white" stroke-width="2" stroke-linecap="round" stroke-linejoin="round"/>
</svg>
