<svg width="136" height="55" viewBox="0 0 136 55" fill="none" xmlns="http://www.w3.org/2000/svg">
<path d="M30.6392 24.5H28.7898C28.6804 23.968 28.489 23.5007 28.2156 23.098C27.9471 22.6953 27.619 22.3572 27.2312 22.0838C26.8484 21.8054 26.4233 21.5966 25.956 21.4574C25.4886 21.3182 25.0014 21.2486 24.4943 21.2486C23.5696 21.2486 22.7319 21.4822 21.9812 21.9496C21.2354 22.4169 20.6413 23.1055 20.1989 24.0153C19.7614 24.9251 19.5426 26.0412 19.5426 27.3636C19.5426 28.6861 19.7614 29.8022 20.1989 30.712C20.6413 31.6218 21.2354 32.3104 21.9812 32.7777C22.7319 33.245 23.5696 33.4787 24.4943 33.4787C25.0014 33.4787 25.4886 33.4091 25.956 33.2699C26.4233 33.1307 26.8484 32.9244 27.2312 32.6509C27.619 32.3725 27.9471 32.032 28.2156 31.6293C28.489 31.2216 28.6804 30.7543 28.7898 30.2273H30.6392C30.5 31.0078 30.2464 31.7063 29.8786 32.3228C29.5107 32.9393 29.0533 33.4638 28.5064 33.8963C27.9595 34.3239 27.3455 34.6495 26.6644 34.8732C25.9883 35.0969 25.2649 35.2088 24.4943 35.2088C23.1918 35.2088 22.0334 34.8906 21.0192 34.2543C20.005 33.6179 19.207 32.7131 18.6254 31.5398C18.0437 30.3665 17.7528 28.9744 17.7528 27.3636C17.7528 25.7528 18.0437 24.3608 18.6254 23.1875C19.207 22.0142 20.005 21.1094 21.0192 20.473C22.0334 19.8366 23.1918 19.5185 24.4943 19.5185C25.2649 19.5185 25.9883 19.6303 26.6644 19.854C27.3455 20.0778 27.9595 20.4059 28.5064 20.8384C29.0533 21.266 29.5107 21.788 29.8786 22.4045C30.2464 23.016 30.5 23.7145 30.6392 24.5ZM36.7599 35.2685C36.034 35.2685 35.3753 35.1317 34.7836 34.8583C34.192 34.5799 33.7222 34.1797 33.3742 33.6577C33.0262 33.1307 32.8522 32.4943 32.8522 31.7486C32.8522 31.0923 32.9814 30.5604 33.24 30.1527C33.4985 29.7401 33.844 29.4169 34.2765 29.1832C34.7091 28.9496 35.1863 28.7756 35.7084 28.6612C36.2354 28.5419 36.7648 28.4474 37.2968 28.3778C37.9928 28.2884 38.5571 28.2212 38.9896 28.1765C39.4271 28.1268 39.7453 28.0447 39.9442 27.9304C40.148 27.8161 40.2499 27.6172 40.2499 27.3338V27.2741C40.2499 26.5384 40.0486 25.9666 39.6459 25.5589C39.2481 25.1513 38.6441 24.9474 37.8337 24.9474C36.9935 24.9474 36.3348 25.1314 35.8575 25.4993C35.3802 25.8672 35.0447 26.2599 34.8508 26.6776L33.1803 26.081C33.4786 25.3849 33.8763 24.843 34.3735 24.4553C34.8756 24.0625 35.4225 23.7891 36.0141 23.6349C36.6107 23.4759 37.1974 23.3963 37.7741 23.3963C38.142 23.3963 38.5645 23.4411 39.0418 23.5305C39.5241 23.6151 39.9889 23.7915 40.4363 24.06C40.8888 24.3285 41.2641 24.7337 41.5624 25.2756C41.8607 25.8175 42.0099 26.5433 42.0099 27.4531V35H40.2499V33.4489H40.1604C40.0411 33.6974 39.8422 33.9634 39.5638 34.2468C39.2854 34.5302 38.915 34.7713 38.4527 34.9702C37.9903 35.169 37.426 35.2685 36.7599 35.2685ZM37.0283 33.6875C37.7243 33.6875 38.311 33.5508 38.7883 33.2773C39.2705 33.0039 39.6334 32.6509 39.877 32.2184C40.1256 31.7859 40.2499 31.331 40.2499 30.8537V29.2429C40.1753 29.3324 40.0113 29.4144 39.7577 29.489C39.5091 29.5586 39.2208 29.6207 38.8927 29.6754C38.5695 29.7251 38.2538 29.7699 37.9456 29.8097C37.6423 29.8445 37.3962 29.8743 37.2073 29.8991C36.7499 29.9588 36.3224 30.0558 35.9246 30.19C35.5319 30.3192 35.2137 30.5156 34.9701 30.7791C34.7314 31.0376 34.6121 31.3906 34.6121 31.8381C34.6121 32.4496 34.8383 32.9119 35.2907 33.2251C35.7481 33.5334 36.3273 33.6875 37.0283 33.6875ZM46.9821 28.1094V35H45.2221V23.5455H46.9224V25.3352H47.0716C47.34 24.7536 47.7477 24.2862 48.2946 23.9332C48.8414 23.5753 49.5474 23.3963 50.4125 23.3963C51.188 23.3963 51.8667 23.5554 52.4483 23.8736C53.03 24.1868 53.4824 24.6641 53.8056 25.3054C54.1287 25.9418 54.2903 26.7472 54.2903 27.7216V35H52.5304V27.8409C52.5304 26.9411 52.2967 26.2401 51.8294 25.7379C51.362 25.2308 50.7207 24.9773 49.9054 24.9773C49.3436 24.9773 48.8414 25.0991 48.399 25.3427C47.9615 25.5863 47.6159 25.9418 47.3624 26.4091C47.1088 26.8764 46.9821 27.4432 46.9821 28.1094ZM62.1597 35.2386C61.0858 35.2386 60.1611 34.9851 59.3856 34.478C58.61 33.9709 58.0134 33.2724 57.5958 32.3825C57.1782 31.4925 56.9694 30.4759 56.9694 29.3324C56.9694 28.169 57.1831 27.1424 57.6107 26.2525C58.0432 25.3576 58.6448 24.6591 59.4154 24.157C60.191 23.6499 61.0958 23.3963 62.1299 23.3963C62.9353 23.3963 63.6611 23.5455 64.3074 23.8438C64.9537 24.142 65.4832 24.5597 65.8959 25.0966C66.3085 25.6335 66.5645 26.2599 66.664 26.9759H64.904C64.7698 26.4538 64.4715 25.9915 64.0091 25.5888C63.5518 25.1811 62.9353 24.9773 62.1597 24.9773C61.4736 24.9773 60.8721 25.1562 60.355 25.5142C59.843 25.8672 59.4427 26.3668 59.1544 27.0131C58.871 27.6545 58.7293 28.4077 58.7293 29.2727C58.7293 30.1577 58.8685 30.9283 59.1469 31.5845C59.4303 32.2408 59.828 32.7504 60.3401 33.1133C60.8572 33.4762 61.4637 33.6577 62.1597 33.6577C62.6171 33.6577 63.0322 33.5781 63.4051 33.419C63.778 33.2599 64.0937 33.0312 64.3522 32.733C64.6107 32.4347 64.7947 32.0767 64.904 31.6591H66.664C66.5645 32.3352 66.3184 32.9442 65.9257 33.4862C65.5379 34.0231 65.0233 34.4506 64.382 34.7688C63.7457 35.082 63.0049 35.2386 62.1597 35.2386ZM74.0393 35.2386C72.9356 35.2386 71.9836 34.995 71.1831 34.5078C70.3877 34.0156 69.7737 33.3295 69.3412 32.4496C68.9136 31.5646 68.6998 30.5355 68.6998 29.3622C68.6998 28.1889 68.9136 27.1548 69.3412 26.2599C69.7737 25.3601 70.3753 24.6591 71.1459 24.157C71.9214 23.6499 72.8263 23.3963 73.8604 23.3963C74.4569 23.3963 75.0461 23.4957 75.6278 23.6946C76.2094 23.8935 76.7389 24.2166 77.2162 24.6641C77.6934 25.1065 78.0738 25.6932 78.3572 26.424C78.6405 27.1548 78.7822 28.0547 78.7822 29.1236V29.8693H69.9527V28.348H76.9925C76.9925 27.7017 76.8632 27.125 76.6047 26.6179C76.3511 26.1108 75.9882 25.7106 75.5159 25.4173C75.0486 25.1239 74.4967 24.9773 73.8604 24.9773C73.1594 24.9773 72.5528 25.1513 72.0407 25.4993C71.5336 25.8423 71.1434 26.2898 70.8699 26.8416C70.5965 27.3935 70.4598 27.9851 70.4598 28.6165V29.6307C70.4598 30.4957 70.6089 31.229 70.9072 31.8306C71.2105 32.4272 71.6306 32.8821 72.1675 33.1953C72.7045 33.5036 73.3284 33.6577 74.0393 33.6577C74.5017 33.6577 74.9193 33.593 75.2922 33.4638C75.67 33.3295 75.9957 33.1307 76.2691 32.8672C76.5425 32.5987 76.7538 32.2656 76.903 31.8679L78.6033 32.3452C78.4243 32.9219 78.1235 33.429 77.7009 33.8665C77.2783 34.299 76.7563 34.6371 76.1349 34.8807C75.5134 35.1193 74.8149 35.2386 74.0393 35.2386ZM83.2194 19.7273V35H81.4594V19.7273H83.2194Z" fill="#2A3647"/>
<path d="M107.501 27.5001L112.744 32.7431M102.258 32.7431L107.501 27.5001L102.258 32.7431ZM112.744 22.2571L107.5 27.5001L112.744 22.2571ZM107.5 27.5001L102.258 22.2571L107.5 27.5001Z" stroke="#2A3647" stroke-width="2" stroke-linecap="round" stroke-linejoin="round"/>
<rect x="0.5" y="0.5" width="135" height="54" rx="9.5" stroke="#2A3647"/>
</svg>
