<svg width="422" height="257" viewBox="0 0 422 257" fill="none" xmlns="http://www.w3.org/2000/svg">
<path d="M2.47585 20H0.536932L6.14489 4.72727H8.05398L13.6619 20H11.723L7.15909 7.14347H7.03977L2.47585 20ZM3.19176 14.0341H11.0071V15.6747H3.19176V14.0341ZM23.9158 11.1108L22.3349 11.5582C22.2354 11.2947 22.0888 11.0387 21.8949 10.7901C21.706 10.5366 21.4474 10.3278 21.1193 10.1637C20.7912 9.99964 20.3711 9.91761 19.859 9.91761C19.158 9.91761 18.5739 10.0792 18.1065 10.4023C17.6442 10.7205 17.413 11.1257 17.413 11.6179C17.413 12.0554 17.5721 12.4009 17.8903 12.6545C18.2085 12.908 18.7056 13.1193 19.3817 13.2884L21.082 13.706C22.1062 13.9545 22.8693 14.3349 23.3714 14.8469C23.8736 15.354 24.1246 16.0078 24.1246 16.8082C24.1246 17.4645 23.9357 18.0511 23.5579 18.5682C23.185 19.0852 22.663 19.4929 21.9918 19.7912C21.3207 20.0895 20.5401 20.2386 19.6502 20.2386C18.4819 20.2386 17.5149 19.9851 16.7493 19.478C15.9837 18.9709 15.4989 18.2301 15.2951 17.2557L16.9656 16.8381C17.1246 17.4545 17.4254 17.9169 17.8679 18.2251C18.3153 18.5334 18.8995 18.6875 19.6204 18.6875C20.4407 18.6875 21.092 18.5135 21.5742 18.1655C22.0614 17.8125 22.305 17.3899 22.305 16.8977C22.305 16.5 22.1658 16.1669 21.8874 15.8984C21.609 15.625 21.1815 15.4212 20.6048 15.2869L18.6957 14.8395C17.6467 14.5909 16.8761 14.2056 16.3839 13.6836C15.8967 13.1566 15.6531 12.4979 15.6531 11.7074C15.6531 11.0611 15.8345 10.4893 16.1974 9.99219C16.5653 9.49503 17.065 9.10476 17.6964 8.82138C18.3327 8.538 19.0536 8.39631 19.859 8.39631C20.9925 8.39631 21.8825 8.64489 22.5288 9.14204C23.18 9.6392 23.6424 10.2955 23.9158 11.1108ZM34.8875 11.1108L33.3066 11.5582C33.2071 11.2947 33.0605 11.0387 32.8666 10.7901C32.6776 10.5366 32.4191 10.3278 32.091 10.1637C31.7629 9.99964 31.3428 9.91761 30.8307 9.91761C30.1297 9.91761 29.5455 10.0792 29.0782 10.4023C28.6159 10.7205 28.3847 11.1257 28.3847 11.6179C28.3847 12.0554 28.5438 12.4009 28.8619 12.6545C29.1801 12.908 29.6773 13.1193 30.3534 13.2884L32.0537 13.706C33.0779 13.9545 33.841 14.3349 34.3431 14.8469C34.8453 15.354 35.0963 16.0078 35.0963 16.8082C35.0963 17.4645 34.9074 18.0511 34.5296 18.5682C34.1567 19.0852 33.6347 19.4929 32.9635 19.7912C32.2923 20.0895 31.5118 20.2386 30.6219 20.2386C29.4536 20.2386 28.4866 19.9851 27.721 19.478C26.9553 18.9709 26.4706 18.2301 26.2668 17.2557L27.9372 16.8381C28.0963 17.4545 28.3971 17.9169 28.8396 18.2251C29.287 18.5334 29.8712 18.6875 30.5921 18.6875C31.4124 18.6875 32.0637 18.5135 32.5459 18.1655C33.0331 17.8125 33.2767 17.3899 33.2767 16.8977C33.2767 16.5 33.1375 16.1669 32.8591 15.8984C32.5807 15.625 32.1531 15.4212 31.5764 15.2869L29.6673 14.8395C28.6183 14.5909 27.8477 14.2056 27.3556 13.6836C26.8683 13.1566 26.6247 12.4979 26.6247 11.7074C26.6247 11.0611 26.8062 10.4893 27.1691 9.99219C27.537 9.49503 28.0367 9.10476 28.6681 8.82138C29.3044 8.538 30.0253 8.39631 30.8307 8.39631C31.9642 8.39631 32.8541 8.64489 33.5004 9.14204C34.1517 9.6392 34.6141 10.2955 34.8875 11.1108ZM37.7456 20V8.54545H39.5055V20H37.7456ZM38.6404 6.63636C38.2974 6.63636 38.0016 6.51953 37.753 6.28587C37.5094 6.0522 37.3876 5.77131 37.3876 5.44318C37.3876 5.11506 37.5094 4.83416 37.753 4.6005C38.0016 4.36683 38.2974 4.25 38.6404 4.25C38.9835 4.25 39.2768 4.36683 39.5204 4.6005C39.769 4.83416 39.8933 5.11506 39.8933 5.44318C39.8933 5.77131 39.769 6.0522 39.5204 6.28587C39.2768 6.51953 38.9835 6.63636 38.6404 6.63636ZM47.3525 24.5341C46.5024 24.5341 45.7716 24.4247 45.1601 24.206C44.5486 23.9922 44.039 23.7088 43.6313 23.3558C43.2286 23.0078 42.9079 22.6349 42.6693 22.2372L44.0713 21.2528C44.2304 21.4616 44.4317 21.7003 44.6753 21.9688C44.9189 22.2422 45.252 22.4783 45.6746 22.6772C46.1022 22.881 46.6615 22.983 47.3525 22.983C48.2773 22.983 49.0404 22.7592 49.642 22.3118C50.2435 21.8643 50.5443 21.1634 50.5443 20.2088V17.8821H50.3952C50.2659 18.0909 50.0819 18.3494 49.8433 18.6577C49.6096 18.9609 49.2716 19.2319 48.8291 19.4705C48.3916 19.7042 47.8 19.821 47.0542 19.821C46.1295 19.821 45.2993 19.6023 44.5635 19.1648C43.8327 18.7273 43.2535 18.0909 42.8259 17.2557C42.4033 16.4205 42.192 15.4062 42.192 14.2131C42.192 13.0398 42.3983 12.0181 42.811 11.1481C43.2236 10.2731 43.7979 9.59695 44.5336 9.11967C45.2694 8.63743 46.1196 8.39631 47.0841 8.39631C47.8298 8.39631 48.4214 8.5206 48.8589 8.76918C49.3014 9.01278 49.6395 9.29119 49.8731 9.6044C50.1118 9.91264 50.2957 10.1662 50.425 10.3651H50.604V8.54545H52.3042V20.3281C52.3042 21.3125 52.0805 22.1129 51.6331 22.7294C51.1906 23.3509 50.594 23.8058 49.8433 24.0941C49.0976 24.3874 48.2673 24.5341 47.3525 24.5341ZM47.2929 18.2401C47.9988 18.2401 48.5954 18.0785 49.0827 17.7553C49.5699 17.4322 49.9403 16.9673 50.1938 16.3608C50.4474 15.7543 50.5741 15.0284 50.5741 14.1832C50.5741 13.358 50.4498 12.6296 50.2013 11.9982C49.9527 11.3668 49.5848 10.8722 49.0976 10.5142C48.6104 10.1562 48.0088 9.97727 47.2929 9.97727C46.5471 9.97727 45.9257 10.1662 45.4285 10.544C44.9363 10.9219 44.566 11.429 44.3174 12.0653C44.0738 12.7017 43.952 13.4077 43.952 14.1832C43.952 14.9787 44.0763 15.6822 44.3248 16.2937C44.5784 16.9002 44.9513 17.3775 45.4434 17.7255C45.9406 18.0685 46.5571 18.2401 47.2929 18.2401ZM57.2858 13.1094V20H55.5258V8.54545H57.2261V10.3352H57.3753C57.6437 9.75355 58.0514 9.28622 58.5983 8.93324C59.1452 8.57528 59.8511 8.39631 60.7162 8.39631C61.4917 8.39631 62.1704 8.5554 62.752 8.87358C63.3337 9.18679 63.7861 9.66406 64.1093 10.3054C64.4324 10.9418 64.594 11.7472 64.594 12.7216V20H62.8341V12.8409C62.8341 11.9411 62.6004 11.2401 62.1331 10.7379C61.6657 10.2308 61.0244 9.97727 60.2091 9.97727C59.6473 9.97727 59.1452 10.0991 58.7027 10.3427C58.2652 10.5863 57.9197 10.9418 57.6661 11.4091C57.4126 11.8764 57.2858 12.4432 57.2858 13.1094ZM72.6126 20.2386C71.5089 20.2386 70.5568 19.995 69.7564 19.5078C68.9609 19.0156 68.3469 18.3295 67.9144 17.4496C67.4869 16.5646 67.2731 15.5355 67.2731 14.3622C67.2731 13.1889 67.4869 12.1548 67.9144 11.2599C68.3469 10.3601 68.9485 9.65909 69.7191 9.15696C70.4947 8.64986 71.3995 8.39631 72.4336 8.39631C73.0302 8.39631 73.6193 8.49574 74.201 8.6946C74.7827 8.89347 75.3121 9.21662 75.7894 9.66406C76.2667 10.1065 76.647 10.6932 76.9304 11.424C77.2138 12.1548 77.3555 13.0547 77.3555 14.1236V14.8693H68.5259V13.348H75.5657C75.5657 12.7017 75.4364 12.125 75.1779 11.6179C74.9244 11.1108 74.5614 10.7106 74.0891 10.4173C73.6218 10.1239 73.07 9.97727 72.4336 9.97727C71.7326 9.97727 71.1261 10.1513 70.614 10.4993C70.1069 10.8423 69.7166 11.2898 69.4432 11.8416C69.1697 12.3935 69.033 12.9851 69.033 13.6165V14.6307C69.033 15.4957 69.1822 16.229 69.4805 16.8306C69.7837 17.4272 70.2038 17.8821 70.7408 18.1953C71.2777 18.5036 71.9016 18.6577 72.6126 18.6577C73.0749 18.6577 73.4925 18.593 73.8654 18.4638C74.2433 18.3295 74.5689 18.1307 74.8423 17.8672C75.1158 17.5987 75.3271 17.2656 75.4762 16.8679L77.1765 17.3452C76.9975 17.9219 76.6967 18.429 76.2741 18.8665C75.8516 19.299 75.3295 19.6371 74.7081 19.8807C74.0866 20.1193 73.3881 20.2386 72.6126 20.2386ZM84.358 20.2386C83.4034 20.2386 82.5607 19.9975 81.8299 19.5153C81.0991 19.0281 80.5273 18.342 80.1147 17.457C79.7021 16.5671 79.4957 15.5156 79.4957 14.3026C79.4957 13.0994 79.7021 12.0554 80.1147 11.1705C80.5273 10.2855 81.1016 9.60192 81.8374 9.11967C82.5732 8.63743 83.4233 8.39631 84.3878 8.39631C85.1335 8.39631 85.7227 8.5206 86.1552 8.76918C86.5927 9.01278 86.9258 9.29119 87.1545 9.6044C87.3881 9.91264 87.5696 10.1662 87.6989 10.3651H87.848V4.72727H89.608V20H87.9077V18.2401H87.6989C87.5696 18.4489 87.3857 18.7124 87.147 19.0305C86.9084 19.3437 86.5678 19.6246 86.1254 19.8732C85.6829 20.1168 85.0938 20.2386 84.358 20.2386ZM84.5966 18.6577C85.3026 18.6577 85.8991 18.4737 86.3864 18.1058C86.8736 17.733 87.244 17.2184 87.4975 16.5621C87.7511 15.9009 87.8778 15.1378 87.8778 14.2727C87.8778 13.4176 87.7536 12.6694 87.505 12.0281C87.2564 11.3817 86.8885 10.8796 86.4013 10.5217C85.9141 10.1587 85.3125 9.97727 84.5966 9.97727C83.8509 9.97727 83.2294 10.1687 82.7322 10.5515C82.2401 10.9293 81.8697 11.4439 81.6211 12.0952C81.3775 12.7415 81.2557 13.4673 81.2557 14.2727C81.2557 15.0881 81.38 15.8288 81.6286 16.495C81.8821 17.1562 82.255 17.6832 82.7472 18.076C83.2443 18.4638 83.8608 18.6577 84.5966 18.6577ZM103.963 8.54545V10.0369H98.0273V8.54545H103.963ZM99.7575 5.80114H101.517V16.7188C101.517 17.2159 101.589 17.5888 101.734 17.8374C101.883 18.081 102.072 18.245 102.3 18.3295C102.534 18.4091 102.78 18.4489 103.039 18.4489C103.233 18.4489 103.392 18.4389 103.516 18.419C103.64 18.3942 103.74 18.3743 103.814 18.3594L104.172 19.9403C104.053 19.9851 103.886 20.0298 103.673 20.0746C103.459 20.1243 103.188 20.1491 102.86 20.1491C102.363 20.1491 101.875 20.0423 101.398 19.8285C100.926 19.6147 100.533 19.2891 100.22 18.8516C99.9116 18.4141 99.7575 17.8622 99.7575 17.196V5.80114ZM111.141 20.2386C110.107 20.2386 109.2 19.9925 108.419 19.5004C107.644 19.0082 107.037 18.3196 106.6 17.4347C106.167 16.5497 105.951 15.5156 105.951 14.3324C105.951 13.1392 106.167 12.0977 106.6 11.2077C107.037 10.3178 107.644 9.62678 108.419 9.13459C109.2 8.6424 110.107 8.39631 111.141 8.39631C112.175 8.39631 113.08 8.6424 113.856 9.13459C114.636 9.62678 115.243 10.3178 115.675 11.2077C116.113 12.0977 116.331 13.1392 116.331 14.3324C116.331 15.5156 116.113 16.5497 115.675 17.4347C115.243 18.3196 114.636 19.0082 113.856 19.5004C113.08 19.9925 112.175 20.2386 111.141 20.2386ZM111.141 18.6577C111.927 18.6577 112.573 18.4563 113.08 18.0536C113.587 17.6509 113.963 17.1214 114.206 16.4652C114.45 15.8089 114.572 15.098 114.572 14.3324C114.572 13.5668 114.45 12.8533 114.206 12.1921C113.963 11.5309 113.587 10.9964 113.08 10.5888C112.573 10.1811 111.927 9.97727 111.141 9.97727C110.356 9.97727 109.709 10.1811 109.202 10.5888C108.695 10.9964 108.32 11.5309 108.076 12.1921C107.833 12.8533 107.711 13.5668 107.711 14.3324C107.711 15.098 107.833 15.8089 108.076 16.4652C108.32 17.1214 108.695 17.6509 109.202 18.0536C109.709 18.4563 110.356 18.6577 111.141 18.6577Z" fill="black"/>
<g clip-path="url(#clip0_88_1067)">
<rect y="33" width="422" height="204" rx="10" fill="white"/>
<path d="M0 49C0 43.3995 0 40.5992 1.08993 38.4601C2.04867 36.5785 3.57847 35.0487 5.46009 34.0899C7.59921 33 10.3995 33 16 33H406C411.601 33 414.401 33 416.54 34.0899C418.422 35.0487 419.951 36.5785 420.91 38.4601C422 40.5992 422 43.3995 422 49V84H0V49Z" fill="white"/>
<path d="M31.2017 54.5455C31.1122 53.7898 30.7493 53.2031 30.1129 52.7855C29.4766 52.3679 28.696 52.1591 27.7713 52.1591C27.0952 52.1591 26.5036 52.2685 25.9964 52.4872C25.4943 52.706 25.1016 53.0067 24.8182 53.3896C24.5398 53.7724 24.4006 54.2074 24.4006 54.6946C24.4006 55.1023 24.4975 55.4528 24.6914 55.7461C24.8903 56.0344 25.1438 56.2756 25.4521 56.4695C25.7603 56.6584 26.0835 56.815 26.4215 56.9393C26.7596 57.0586 27.0703 57.1555 27.3537 57.2301L28.9048 57.6477C29.3026 57.7521 29.745 57.8963 30.2322 58.0803C30.7244 58.2642 31.1942 58.5153 31.6417 58.8335C32.0941 59.1467 32.467 59.5494 32.7603 60.0415C33.0536 60.5337 33.2003 61.1378 33.2003 61.8537C33.2003 62.679 32.984 63.4247 32.5515 64.0909C32.1239 64.7571 31.4975 65.2866 30.6722 65.6793C29.8519 66.0721 28.8551 66.2685 27.6818 66.2685C26.5881 66.2685 25.641 66.092 24.8406 65.739C24.0451 65.386 23.4187 64.8938 22.9613 64.2624C22.5089 63.631 22.2528 62.8977 22.1932 62.0625H24.1023C24.152 62.6392 24.3459 63.1165 24.6839 63.4943C25.027 63.8672 25.4595 64.1456 25.9815 64.3295C26.5085 64.5085 27.0753 64.598 27.6818 64.598C28.3878 64.598 29.0217 64.4837 29.5835 64.255C30.1452 64.0213 30.5902 63.6982 30.9183 63.2855C31.2464 62.8679 31.4105 62.3807 31.4105 61.8239C31.4105 61.3168 31.2688 60.9041 30.9854 60.5859C30.7021 60.2678 30.3292 60.0092 29.8668 59.8104C29.4045 59.6115 28.9048 59.4375 28.3679 59.2884L26.4886 58.7514C25.2955 58.4084 24.3509 57.9187 23.6548 57.2823C22.9588 56.646 22.6108 55.8132 22.6108 54.7841C22.6108 53.929 22.842 53.1832 23.3043 52.5469C23.7717 51.9055 24.3981 51.4084 25.1836 51.0554C25.9741 50.6974 26.8565 50.5185 27.831 50.5185C28.8153 50.5185 29.6903 50.695 30.456 51.0479C31.2216 51.396 31.8281 51.8732 32.2756 52.4798C32.728 53.0863 32.9666 53.7749 32.9915 54.5455H31.2017ZM40.805 66.2386C39.7013 66.2386 38.7492 65.995 37.9488 65.5078C37.1533 65.0156 36.5393 64.3295 36.1068 63.4496C35.6792 62.5646 35.4655 61.5355 35.4655 60.3622C35.4655 59.1889 35.6792 58.1548 36.1068 57.2599C36.5393 56.3601 37.1409 55.6591 37.9115 55.157C38.6871 54.6499 39.5919 54.3963 40.626 54.3963C41.2226 54.3963 41.8117 54.4957 42.3934 54.6946C42.9751 54.8935 43.5045 55.2166 43.9818 55.6641C44.4591 56.1065 44.8394 56.6932 45.1228 57.424C45.4062 58.1548 45.5479 59.0547 45.5479 60.1236V60.8693H36.7183V59.348H43.7581C43.7581 58.7017 43.6288 58.125 43.3703 57.6179C43.1167 57.1108 42.7538 56.7106 42.2815 56.4173C41.8142 56.1239 41.2623 55.9773 40.626 55.9773C39.925 55.9773 39.3184 56.1513 38.8064 56.4993C38.2993 56.8423 37.909 57.2898 37.6356 57.8416C37.3621 58.3935 37.2254 58.9851 37.2254 59.6165V60.6307C37.2254 61.4957 37.3746 62.229 37.6729 62.8306C37.9761 63.4272 38.3962 63.8821 38.9332 64.1953C39.4701 64.5036 40.094 64.6577 40.805 64.6577C41.2673 64.6577 41.6849 64.593 42.0578 64.4638C42.4356 64.3295 42.7613 64.1307 43.0347 63.8672C43.3082 63.5987 43.5194 63.2656 43.6686 62.8679L45.3689 63.3452C45.1899 63.9219 44.8891 64.429 44.4665 64.8665C44.0439 65.299 43.5219 65.6371 42.9005 65.8807C42.279 66.1193 41.5805 66.2386 40.805 66.2386ZM49.985 50.7273V66H48.2251V50.7273H49.985ZM58.011 66.2386C56.9073 66.2386 55.9553 65.995 55.1548 65.5078C54.3594 65.0156 53.7454 64.3295 53.3129 63.4496C52.8853 62.5646 52.6715 61.5355 52.6715 60.3622C52.6715 59.1889 52.8853 58.1548 53.3129 57.2599C53.7454 56.3601 54.3469 55.6591 55.1175 55.157C55.8931 54.6499 56.7979 54.3963 57.832 54.3963C58.4286 54.3963 59.0178 54.4957 59.5994 54.6946C60.1811 54.8935 60.7106 55.2166 61.1879 55.6641C61.6651 56.1065 62.0455 56.6932 62.3288 57.424C62.6122 58.1548 62.7539 59.0547 62.7539 60.1236V60.8693H53.9244V59.348H60.9641C60.9641 58.7017 60.8349 58.125 60.5763 57.6179C60.3228 57.1108 59.9599 56.7106 59.4876 56.4173C59.0202 56.1239 58.4684 55.9773 57.832 55.9773C57.131 55.9773 56.5245 56.1513 56.0124 56.4993C55.5053 56.8423 55.1151 57.2898 54.8416 57.8416C54.5682 58.3935 54.4315 58.9851 54.4315 59.6165V60.6307C54.4315 61.4957 54.5806 62.229 54.8789 62.8306C55.1822 63.4272 55.6023 63.8821 56.1392 64.1953C56.6761 64.5036 57.3001 64.6577 58.011 64.6577C58.4734 64.6577 58.891 64.593 59.2638 64.4638C59.6417 64.3295 59.9673 64.1307 60.2408 63.8672C60.5142 63.5987 60.7255 63.2656 60.8746 62.8679L62.5749 63.3452C62.396 63.9219 62.0952 64.429 61.6726 64.8665C61.25 65.299 60.728 65.6371 60.1065 65.8807C59.4851 66.1193 58.7866 66.2386 58.011 66.2386ZM70.0845 66.2386C69.0107 66.2386 68.0859 65.9851 67.3104 65.478C66.5348 64.9709 65.9382 64.2724 65.5206 63.3825C65.103 62.4925 64.8942 61.4759 64.8942 60.3324C64.8942 59.169 65.108 58.1424 65.5355 57.2525C65.968 56.3576 66.5696 55.6591 67.3402 55.157C68.1158 54.6499 69.0206 54.3963 70.0547 54.3963C70.8601 54.3963 71.5859 54.5455 72.2322 54.8438C72.8786 55.142 73.408 55.5597 73.8207 56.0966C74.2333 56.6335 74.4893 57.2599 74.5888 57.9759H72.8288C72.6946 57.4538 72.3963 56.9915 71.9339 56.5888C71.4766 56.1811 70.8601 55.9773 70.0845 55.9773C69.3984 55.9773 68.7969 56.1562 68.2798 56.5142C67.7678 56.8672 67.3675 57.3668 67.0792 58.0131C66.7958 58.6545 66.6541 59.4077 66.6541 60.2727C66.6541 61.1577 66.7933 61.9283 67.0717 62.5845C67.3551 63.2408 67.7528 63.7504 68.2649 64.1133C68.782 64.4762 69.3885 64.6577 70.0845 64.6577C70.5419 64.6577 70.957 64.5781 71.3299 64.419C71.7028 64.2599 72.0185 64.0312 72.277 63.733C72.5355 63.4347 72.7195 63.0767 72.8288 62.6591H74.5888C74.4893 63.3352 74.2433 63.9442 73.8505 64.4862C73.4627 65.0231 72.9482 65.4506 72.3068 65.7688C71.6705 66.082 70.9297 66.2386 70.0845 66.2386ZM82.1431 54.5455V56.0369H76.207V54.5455H82.1431ZM77.9371 51.8011H79.6971V62.7188C79.6971 63.2159 79.7692 63.5888 79.9134 63.8374C80.0625 64.081 80.2514 64.245 80.4801 64.3295C80.7138 64.4091 80.9599 64.4489 81.2184 64.4489C81.4123 64.4489 81.5714 64.4389 81.6957 64.419C81.82 64.3942 81.9194 64.3743 81.994 64.3594L82.3519 65.9403C82.2326 65.9851 82.0661 66.0298 81.8523 66.0746C81.6385 66.1243 81.3675 66.1491 81.0394 66.1491C80.5423 66.1491 80.055 66.0423 79.5778 65.8285C79.1055 65.6147 78.7127 65.2891 78.3995 64.8516C78.0913 64.4141 77.9371 63.8622 77.9371 63.196V51.8011ZM95.3501 66.2386C94.2763 66.2386 93.3516 65.9851 92.576 65.478C91.8004 64.9709 91.2038 64.2724 90.7862 63.3825C90.3686 62.4925 90.1598 61.4759 90.1598 60.3324C90.1598 59.169 90.3736 58.1424 90.8011 57.2525C91.2337 56.3576 91.8352 55.6591 92.6058 55.157C93.3814 54.6499 94.2862 54.3963 95.3203 54.3963C96.1257 54.3963 96.8516 54.5455 97.4979 54.8438C98.1442 55.142 98.6737 55.5597 99.0863 56.0966C99.4989 56.6335 99.755 57.2599 99.8544 57.9759H98.0945C97.9602 57.4538 97.6619 56.9915 97.1996 56.5888C96.7422 56.1811 96.1257 55.9773 95.3501 55.9773C94.6641 55.9773 94.0625 56.1562 93.5455 56.5142C93.0334 56.8672 92.6332 57.3668 92.3448 58.0131C92.0614 58.6545 91.9197 59.4077 91.9197 60.2727C91.9197 61.1577 92.0589 61.9283 92.3374 62.5845C92.6207 63.2408 93.0185 63.7504 93.5305 64.1133C94.0476 64.4762 94.6541 64.6577 95.3501 64.6577C95.8075 64.6577 96.2227 64.5781 96.5955 64.419C96.9684 64.2599 97.2841 64.0312 97.5426 63.733C97.8011 63.4347 97.9851 63.0767 98.0945 62.6591H99.8544C99.755 63.3352 99.5089 63.9442 99.1161 64.4862C98.7283 65.0231 98.2138 65.4506 97.5724 65.7688C96.9361 66.082 96.1953 66.2386 95.3501 66.2386ZM107.081 66.2386C106.047 66.2386 105.139 65.9925 104.359 65.5004C103.583 65.0082 102.977 64.3196 102.539 63.4347C102.107 62.5497 101.89 61.5156 101.89 60.3324C101.89 59.1392 102.107 58.0977 102.539 57.2077C102.977 56.3178 103.583 55.6268 104.359 55.1346C105.139 54.6424 106.047 54.3963 107.081 54.3963C108.115 54.3963 109.02 54.6424 109.795 55.1346C110.576 55.6268 111.182 56.3178 111.615 57.2077C112.052 58.0977 112.271 59.1392 112.271 60.3324C112.271 61.5156 112.052 62.5497 111.615 63.4347C111.182 64.3196 110.576 65.0082 109.795 65.5004C109.02 65.9925 108.115 66.2386 107.081 66.2386ZM107.081 64.6577C107.866 64.6577 108.512 64.4563 109.02 64.0536C109.527 63.6509 109.902 63.1214 110.146 62.4652C110.389 61.8089 110.511 61.098 110.511 60.3324C110.511 59.5668 110.389 58.8533 110.146 58.1921C109.902 57.5309 109.527 56.9964 109.02 56.5888C108.512 56.1811 107.866 55.9773 107.081 55.9773C106.295 55.9773 105.649 56.1811 105.142 56.5888C104.635 56.9964 104.259 57.5309 104.016 58.1921C103.772 58.8533 103.65 59.5668 103.65 60.3324C103.65 61.098 103.772 61.8089 104.016 62.4652C104.259 63.1214 104.635 63.6509 105.142 64.0536C105.649 64.4563 106.295 64.6577 107.081 64.6577ZM116.717 59.1094V66H114.957V54.5455H116.658V56.3352H116.807C117.075 55.7536 117.483 55.2862 118.03 54.9332C118.577 54.5753 119.283 54.3963 120.148 54.3963C120.923 54.3963 121.602 54.5554 122.184 54.8736C122.765 55.1868 123.218 55.6641 123.541 56.3054C123.864 56.9418 124.026 57.7472 124.026 58.7216V66H122.266V58.8409C122.266 57.9411 122.032 57.2401 121.565 56.7379C121.097 56.2308 120.456 55.9773 119.641 55.9773C119.079 55.9773 118.577 56.0991 118.134 56.3427C117.697 56.5863 117.351 56.9418 117.098 57.4091C116.844 57.8764 116.717 58.4432 116.717 59.1094ZM132.223 54.5455V56.0369H126.287V54.5455H132.223ZM128.017 51.8011H129.777V62.7188C129.777 63.2159 129.849 63.5888 129.993 63.8374C130.143 64.081 130.331 64.245 130.56 64.3295C130.794 64.4091 131.04 64.4489 131.298 64.4489C131.492 64.4489 131.651 64.4389 131.776 64.419C131.9 64.3942 131.999 64.3743 132.074 64.3594L132.432 65.9403C132.313 65.9851 132.146 66.0298 131.932 66.0746C131.719 66.1243 131.448 66.1491 131.119 66.1491C130.622 66.1491 130.135 66.0423 129.658 65.8285C129.186 65.6147 128.793 65.2891 128.48 64.8516C128.171 64.4141 128.017 63.8622 128.017 63.196V51.8011ZM138.241 66.2685C137.515 66.2685 136.857 66.1317 136.265 65.8583C135.673 65.5799 135.204 65.1797 134.856 64.6577C134.508 64.1307 134.334 63.4943 134.334 62.7486C134.334 62.0923 134.463 61.5604 134.721 61.1527C134.98 60.7401 135.325 60.4169 135.758 60.1832C136.191 59.9496 136.668 59.7756 137.19 59.6612C137.717 59.5419 138.246 59.4474 138.778 59.3778C139.474 59.2884 140.039 59.2212 140.471 59.1765C140.909 59.1268 141.227 59.0447 141.426 58.9304C141.629 58.8161 141.731 58.6172 141.731 58.3338V58.2741C141.731 57.5384 141.53 56.9666 141.127 56.5589C140.73 56.1513 140.126 55.9474 139.315 55.9474C138.475 55.9474 137.816 56.1314 137.339 56.4993C136.862 56.8672 136.526 57.2599 136.332 57.6776L134.662 57.081C134.96 56.3849 135.358 55.843 135.855 55.4553C136.357 55.0625 136.904 54.7891 137.496 54.6349C138.092 54.4759 138.679 54.3963 139.256 54.3963C139.623 54.3963 140.046 54.4411 140.523 54.5305C141.006 54.6151 141.47 54.7915 141.918 55.06C142.37 55.3285 142.746 55.7337 143.044 56.2756C143.342 56.8175 143.491 57.5433 143.491 58.4531V66H141.731V64.4489H141.642C141.523 64.6974 141.324 64.9634 141.045 65.2468C140.767 65.5302 140.396 65.7713 139.934 65.9702C139.472 66.169 138.907 66.2685 138.241 66.2685ZM138.51 64.6875C139.206 64.6875 139.792 64.5508 140.27 64.2773C140.752 64.0039 141.115 63.6509 141.358 63.2184C141.607 62.7859 141.731 62.331 141.731 61.8537V60.2429C141.657 60.3324 141.493 60.4144 141.239 60.489C140.991 60.5586 140.702 60.6207 140.374 60.6754C140.051 60.7251 139.735 60.7699 139.427 60.8097C139.124 60.8445 138.878 60.8743 138.689 60.8991C138.231 60.9588 137.804 61.0558 137.406 61.19C137.013 61.3192 136.695 61.5156 136.452 61.7791C136.213 62.0376 136.094 62.3906 136.094 62.8381C136.094 63.4496 136.32 63.9119 136.772 64.2251C137.23 64.5334 137.809 64.6875 138.51 64.6875ZM151.357 66.2386C150.283 66.2386 149.358 65.9851 148.583 65.478C147.807 64.9709 147.211 64.2724 146.793 63.3825C146.375 62.4925 146.167 61.4759 146.167 60.3324C146.167 59.169 146.38 58.1424 146.808 57.2525C147.241 56.3576 147.842 55.6591 148.613 55.157C149.388 54.6499 150.293 54.3963 151.327 54.3963C152.133 54.3963 152.858 54.5455 153.505 54.8438C154.151 55.142 154.68 55.5597 155.093 56.0966C155.506 56.6335 155.762 57.2599 155.861 57.9759H154.101C153.967 57.4538 153.669 56.9915 153.206 56.5888C152.749 56.1811 152.133 55.9773 151.357 55.9773C150.671 55.9773 150.069 56.1562 149.552 56.5142C149.04 56.8672 148.64 57.3668 148.352 58.0131C148.068 58.6545 147.927 59.4077 147.927 60.2727C147.927 61.1577 148.066 61.9283 148.344 62.5845C148.628 63.2408 149.025 63.7504 149.537 64.1133C150.054 64.4762 150.661 64.6577 151.357 64.6577C151.814 64.6577 152.229 64.5781 152.602 64.419C152.975 64.2599 153.291 64.0312 153.549 63.733C153.808 63.4347 153.992 63.0767 154.101 62.6591H155.861C155.762 63.3352 155.516 63.9442 155.123 64.4862C154.735 65.0231 154.221 65.4506 153.579 65.7688C152.943 66.082 152.202 66.2386 151.357 66.2386ZM163.416 54.5455V56.0369H157.479V54.5455H163.416ZM159.21 51.8011H160.97V62.7188C160.97 63.2159 161.042 63.5888 161.186 63.8374C161.335 64.081 161.524 64.245 161.753 64.3295C161.986 64.4091 162.232 64.4489 162.491 64.4489C162.685 64.4489 162.844 64.4389 162.968 64.419C163.092 64.3942 163.192 64.3743 163.266 64.3594L163.624 65.9403C163.505 65.9851 163.339 66.0298 163.125 66.0746C162.911 66.1243 162.64 66.1491 162.312 66.1491C161.815 66.1491 161.328 66.0423 160.85 65.8285C160.378 65.6147 159.985 65.2891 159.672 64.8516C159.364 64.4141 159.21 63.8622 159.21 63.196V51.8011ZM173.972 57.1108L172.391 57.5582C172.291 57.2947 172.144 57.0387 171.951 56.7901C171.762 56.5366 171.503 56.3278 171.175 56.1637C170.847 55.9996 170.427 55.9176 169.915 55.9176C169.214 55.9176 168.63 56.0792 168.162 56.4023C167.7 56.7205 167.469 57.1257 167.469 57.6179C167.469 58.0554 167.628 58.4009 167.946 58.6545C168.264 58.908 168.761 59.1193 169.437 59.2884L171.138 59.706C172.162 59.9545 172.925 60.3349 173.427 60.8469C173.929 61.354 174.18 62.0078 174.18 62.8082C174.18 63.4645 173.991 64.0511 173.614 64.5682C173.241 65.0852 172.719 65.4929 172.047 65.7912C171.376 66.0895 170.596 66.2386 169.706 66.2386C168.538 66.2386 167.571 65.9851 166.805 65.478C166.039 64.9709 165.555 64.2301 165.351 63.2557L167.021 62.8381C167.18 63.4545 167.481 63.9169 167.924 64.2251C168.371 64.5334 168.955 64.6875 169.676 64.6875C170.496 64.6875 171.148 64.5135 171.63 64.1655C172.117 63.8125 172.361 63.3899 172.361 62.8977C172.361 62.5 172.222 62.1669 171.943 61.8984C171.665 61.625 171.237 61.4212 170.66 61.2869L168.751 60.8395C167.702 60.5909 166.932 60.2056 166.44 59.6836C165.952 59.1566 165.709 58.4979 165.709 57.7074C165.709 57.0611 165.89 56.4893 166.253 55.9922C166.621 55.495 167.121 55.1048 167.752 54.8214C168.388 54.538 169.109 54.3963 169.915 54.3963C171.048 54.3963 171.938 54.6449 172.584 55.142C173.236 55.6392 173.698 56.2955 173.972 57.1108ZM187.717 54.5455V56.0369H181.781V54.5455H187.717ZM183.511 51.8011H185.271V62.7188C185.271 63.2159 185.343 63.5888 185.488 63.8374C185.637 64.081 185.826 64.245 186.054 64.3295C186.288 64.4091 186.534 64.4489 186.793 64.4489C186.987 64.4489 187.146 64.4389 187.27 64.419C187.394 64.3942 187.494 64.3743 187.568 64.3594L187.926 65.9403C187.807 65.9851 187.64 66.0298 187.426 66.0746C187.213 66.1243 186.942 66.1491 186.614 66.1491C186.116 66.1491 185.629 66.0423 185.152 65.8285C184.68 65.6147 184.287 65.2891 183.974 64.8516C183.665 64.4141 183.511 63.8622 183.511 63.196V51.8011ZM194.895 66.2386C193.861 66.2386 192.954 65.9925 192.173 65.5004C191.398 65.0082 190.791 64.3196 190.354 63.4347C189.921 62.5497 189.705 61.5156 189.705 60.3324C189.705 59.1392 189.921 58.0977 190.354 57.2077C190.791 56.3178 191.398 55.6268 192.173 55.1346C192.954 54.6424 193.861 54.3963 194.895 54.3963C195.929 54.3963 196.834 54.6424 197.61 55.1346C198.39 55.6268 198.997 56.3178 199.429 57.2077C199.867 58.0977 200.085 59.1392 200.085 60.3324C200.085 61.5156 199.867 62.5497 199.429 63.4347C198.997 64.3196 198.39 65.0082 197.61 65.5004C196.834 65.9925 195.929 66.2386 194.895 66.2386ZM194.895 64.6577C195.681 64.6577 196.327 64.4563 196.834 64.0536C197.341 63.6509 197.716 63.1214 197.96 62.4652C198.204 61.8089 198.325 61.098 198.325 60.3324C198.325 59.5668 198.204 58.8533 197.96 58.1921C197.716 57.5309 197.341 56.9964 196.834 56.5888C196.327 56.1811 195.681 55.9773 194.895 55.9773C194.11 55.9773 193.463 56.1811 192.956 56.5888C192.449 56.9964 192.074 57.5309 191.83 58.1921C191.586 58.8533 191.465 59.5668 191.465 60.3324C191.465 61.098 191.586 61.8089 191.83 62.4652C192.074 63.1214 192.449 63.6509 192.956 64.0536C193.463 64.4563 194.11 64.6577 194.895 64.6577ZM212.049 66.2685C211.323 66.2685 210.664 66.1317 210.073 65.8583C209.481 65.5799 209.011 65.1797 208.663 64.6577C208.315 64.1307 208.141 63.4943 208.141 62.7486C208.141 62.0923 208.271 61.5604 208.529 61.1527C208.788 60.7401 209.133 60.4169 209.566 60.1832C209.998 59.9496 210.475 59.7756 210.997 59.6612C211.524 59.5419 212.054 59.4474 212.586 59.3778C213.282 59.2884 213.846 59.2212 214.279 59.1765C214.716 59.1268 215.034 59.0447 215.233 58.9304C215.437 58.8161 215.539 58.6172 215.539 58.3338V58.2741C215.539 57.5384 215.338 56.9666 214.935 56.5589C214.537 56.1513 213.933 55.9474 213.123 55.9474C212.283 55.9474 211.624 56.1314 211.147 56.4993C210.669 56.8672 210.334 57.2599 210.14 57.6776L208.469 57.081C208.768 56.3849 209.165 55.843 209.663 55.4553C210.165 55.0625 210.712 54.7891 211.303 54.6349C211.9 54.4759 212.486 54.3963 213.063 54.3963C213.431 54.3963 213.854 54.4411 214.331 54.5305C214.813 54.6151 215.278 54.7915 215.725 55.06C216.178 55.3285 216.553 55.7337 216.851 56.2756C217.15 56.8175 217.299 57.5433 217.299 58.4531V66H215.539V64.4489H215.449C215.33 64.6974 215.131 64.9634 214.853 65.2468C214.574 65.5302 214.204 65.7713 213.742 65.9702C213.279 66.169 212.715 66.2685 212.049 66.2685ZM212.317 64.6875C213.013 64.6875 213.6 64.5508 214.077 64.2773C214.56 64.0039 214.922 63.6509 215.166 63.2184C215.415 62.7859 215.539 62.331 215.539 61.8537V60.2429C215.464 60.3324 215.3 60.4144 215.047 60.489C214.798 60.5586 214.51 60.6207 214.182 60.6754C213.859 60.7251 213.543 60.7699 213.235 60.8097C212.931 60.8445 212.685 60.8743 212.496 60.8991C212.039 60.9588 211.611 61.0558 211.214 61.19C210.821 61.3192 210.503 61.5156 210.259 61.7791C210.021 62.0376 209.901 62.3906 209.901 62.8381C209.901 63.4496 210.127 63.9119 210.58 64.2251C211.037 64.5334 211.616 64.6875 212.317 64.6875ZM228.625 57.1108L227.044 57.5582C226.944 57.2947 226.798 57.0387 226.604 56.7901C226.415 56.5366 226.156 56.3278 225.828 56.1637C225.5 55.9996 225.08 55.9176 224.568 55.9176C223.867 55.9176 223.283 56.0792 222.816 56.4023C222.353 56.7205 222.122 57.1257 222.122 57.6179C222.122 58.0554 222.281 58.4009 222.599 58.6545C222.917 58.908 223.415 59.1193 224.091 59.2884L225.791 59.706C226.815 59.9545 227.578 60.3349 228.08 60.8469C228.583 61.354 228.834 62.0078 228.834 62.8082C228.834 63.4645 228.645 64.0511 228.267 64.5682C227.894 65.0852 227.372 65.4929 226.701 65.7912C226.03 66.0895 225.249 66.2386 224.359 66.2386C223.191 66.2386 222.224 65.9851 221.458 65.478C220.693 64.9709 220.208 64.2301 220.004 63.2557L221.675 62.8381C221.834 63.4545 222.134 63.9169 222.577 64.2251C223.024 64.5334 223.608 64.6875 224.329 64.6875C225.15 64.6875 225.801 64.5135 226.283 64.1655C226.77 63.8125 227.014 63.3899 227.014 62.8977C227.014 62.5 226.875 62.1669 226.596 61.8984C226.318 61.625 225.89 61.4212 225.314 61.2869L223.405 60.8395C222.356 60.5909 221.585 60.2056 221.093 59.6836C220.606 59.1566 220.362 58.4979 220.362 57.7074C220.362 57.0611 220.544 56.4893 220.906 55.9922C221.274 55.495 221.774 55.1048 222.405 54.8214C223.042 54.538 223.763 54.3963 224.568 54.3963C225.702 54.3963 226.591 54.6449 227.238 55.142C227.889 55.6392 228.351 56.2955 228.625 57.1108ZM239.597 57.1108L238.016 57.5582C237.916 57.2947 237.769 57.0387 237.576 56.7901C237.387 56.5366 237.128 56.3278 236.8 56.1637C236.472 55.9996 236.052 55.9176 235.54 55.9176C234.839 55.9176 234.255 56.0792 233.787 56.4023C233.325 56.7205 233.094 57.1257 233.094 57.6179C233.094 58.0554 233.253 58.4009 233.571 58.6545C233.889 58.908 234.386 59.1193 235.062 59.2884L236.763 59.706C237.787 59.9545 238.55 60.3349 239.052 60.8469C239.554 61.354 239.805 62.0078 239.805 62.8082C239.805 63.4645 239.616 64.0511 239.239 64.5682C238.866 65.0852 238.344 65.4929 237.672 65.7912C237.001 66.0895 236.221 66.2386 235.331 66.2386C234.163 66.2386 233.196 65.9851 232.43 65.478C231.664 64.9709 231.18 64.2301 230.976 63.2557L232.646 62.8381C232.805 63.4545 233.106 63.9169 233.549 64.2251C233.996 64.5334 234.58 64.6875 235.301 64.6875C236.121 64.6875 236.773 64.5135 237.255 64.1655C237.742 63.8125 237.986 63.3899 237.986 62.8977C237.986 62.5 237.847 62.1669 237.568 61.8984C237.29 61.625 236.862 61.4212 236.285 61.2869L234.376 60.8395C233.327 60.5909 232.557 60.2056 232.065 59.6836C231.577 59.1566 231.334 58.4979 231.334 57.7074C231.334 57.0611 231.515 56.4893 231.878 55.9922C232.246 55.495 232.746 55.1048 233.377 54.8214C234.013 54.538 234.734 54.3963 235.54 54.3963C236.673 54.3963 237.563 54.6449 238.209 55.142C238.861 55.6392 239.323 56.2955 239.597 57.1108ZM242.455 66V54.5455H244.214V66H242.455ZM243.349 52.6364C243.006 52.6364 242.711 52.5195 242.462 52.2859C242.218 52.0522 242.097 51.7713 242.097 51.4432C242.097 51.1151 242.218 50.8342 242.462 50.6005C242.711 50.3668 243.006 50.25 243.349 50.25C243.692 50.25 243.986 50.3668 244.229 50.6005C244.478 50.8342 244.602 51.1151 244.602 51.4432C244.602 51.7713 244.478 52.0522 244.229 52.2859C243.986 52.5195 243.692 52.6364 243.349 52.6364ZM252.062 70.5341C251.211 70.5341 250.481 70.4247 249.869 70.206C249.258 69.9922 248.748 69.7088 248.34 69.3558C247.938 69.0078 247.617 68.6349 247.378 68.2372L248.78 67.2528C248.939 67.4616 249.141 67.7003 249.384 67.9688C249.628 68.2422 249.961 68.4783 250.384 68.6772C250.811 68.881 251.37 68.983 252.062 68.983C252.986 68.983 253.749 68.7592 254.351 68.3118C254.953 67.8643 255.253 67.1634 255.253 66.2088V63.8821H255.104C254.975 64.0909 254.791 64.3494 254.552 64.6577C254.319 64.9609 253.981 65.2319 253.538 65.4705C253.101 65.7042 252.509 65.821 251.763 65.821C250.839 65.821 250.008 65.6023 249.272 65.1648C248.542 64.7273 247.962 64.0909 247.535 63.2557C247.112 62.4205 246.901 61.4062 246.901 60.2131C246.901 59.0398 247.107 58.0181 247.52 57.1481C247.933 56.2731 248.507 55.5969 249.243 55.1197C249.978 54.6374 250.829 54.3963 251.793 54.3963C252.539 54.3963 253.13 54.5206 253.568 54.7692C254.01 55.0128 254.348 55.2912 254.582 55.6044C254.821 55.9126 255.005 56.1662 255.134 56.3651H255.313V54.5455H257.013V66.3281C257.013 67.3125 256.79 68.1129 256.342 68.7294C255.9 69.3509 255.303 69.8058 254.552 70.0941C253.807 70.3874 252.976 70.5341 252.062 70.5341ZM252.002 64.2401C252.708 64.2401 253.304 64.0785 253.792 63.7553C254.279 63.4322 254.649 62.9673 254.903 62.3608C255.156 61.7543 255.283 61.0284 255.283 60.1832C255.283 59.358 255.159 58.6296 254.91 57.9982C254.662 57.3668 254.294 56.8722 253.807 56.5142C253.319 56.1562 252.718 55.9773 252.002 55.9773C251.256 55.9773 250.635 56.1662 250.138 56.544C249.645 56.9219 249.275 57.429 249.026 58.0653C248.783 58.7017 248.661 59.4077 248.661 60.1832C248.661 60.9787 248.785 61.6822 249.034 62.2937C249.287 62.9002 249.66 63.3775 250.152 63.7255C250.65 64.0685 251.266 64.2401 252.002 64.2401ZM261.995 59.1094V66H260.235V54.5455H261.935V56.3352H262.084C262.353 55.7536 262.76 55.2862 263.307 54.9332C263.854 54.5753 264.56 54.3963 265.425 54.3963C266.201 54.3963 266.879 54.5554 267.461 54.8736C268.043 55.1868 268.495 55.6641 268.818 56.3054C269.141 56.9418 269.303 57.7472 269.303 58.7216V66H267.543V58.8409C267.543 57.9411 267.309 57.2401 266.842 56.7379C266.375 56.2308 265.733 55.9773 264.918 55.9773C264.356 55.9773 263.854 56.0991 263.412 56.3427C262.974 56.5863 262.629 56.9418 262.375 57.4091C262.122 57.8764 261.995 58.4432 261.995 59.1094Z" fill="black"/>
<path d="M395.2 55H394.414C393.523 55 393.077 56.0771 393.707 56.7071L399.293 62.2929C399.683 62.6834 400.317 62.6834 400.707 62.2929L406.293 56.7071C406.923 56.0771 406.477 55 405.586 55H404.8H400H395.2Z" fill="black"/>
<path d="M21.5369 101.727H23.6548L27.8906 108.857H28.0696L32.3054 101.727H34.4233L28.9048 110.706V117H27.0554V110.706L21.5369 101.727ZM39.6099 117.239C38.5758 117.239 37.6685 116.993 36.888 116.5C36.1124 116.008 35.5059 115.32 35.0684 114.435C34.6358 113.55 34.4196 112.516 34.4196 111.332C34.4196 110.139 34.6358 109.098 35.0684 108.208C35.5059 107.318 36.1124 106.627 36.888 106.135C37.6685 105.642 38.5758 105.396 39.6099 105.396C40.644 105.396 41.5488 105.642 42.3244 106.135C43.1049 106.627 43.7115 107.318 44.144 108.208C44.5815 109.098 44.8002 110.139 44.8002 111.332C44.8002 112.516 44.5815 113.55 44.144 114.435C43.7115 115.32 43.1049 116.008 42.3244 116.5C41.5488 116.993 40.644 117.239 39.6099 117.239ZM39.6099 115.658C40.3954 115.658 41.0417 115.456 41.5488 115.054C42.0559 114.651 42.4313 114.121 42.6749 113.465C42.9185 112.809 43.0403 112.098 43.0403 111.332C43.0403 110.567 42.9185 109.853 42.6749 109.192C42.4313 108.531 42.0559 107.996 41.5488 107.589C41.0417 107.181 40.3954 106.977 39.6099 106.977C38.8244 106.977 38.1781 107.181 37.671 107.589C37.1639 107.996 36.7885 108.531 36.5449 109.192C36.3013 109.853 36.1795 110.567 36.1795 111.332C36.1795 112.098 36.3013 112.809 36.5449 113.465C36.7885 114.121 37.1639 114.651 37.671 115.054C38.1781 115.456 38.8244 115.658 39.6099 115.658ZM54.7055 112.317V105.545H56.4655V117H54.7055V115.061H54.5862C54.3177 115.643 53.9001 116.137 53.3334 116.545C52.7666 116.948 52.0507 117.149 51.1856 117.149C50.4697 117.149 49.8334 116.993 49.2765 116.679C48.7197 116.361 48.2822 115.884 47.964 115.248C47.6459 114.606 47.4868 113.798 47.4868 112.824V105.545H49.2467V112.705C49.2467 113.54 49.4804 114.206 49.9477 114.703C50.42 115.2 51.0216 115.449 51.7524 115.449C52.1899 115.449 52.6349 115.337 53.0873 115.113C53.5447 114.89 53.9275 114.547 54.2357 114.084C54.5489 113.622 54.7055 113.033 54.7055 112.317Z" fill="black"/>
<rect x="395" y="104" width="11" height="11" rx="3" fill="url(#paint0_linear_88_1067)" stroke="black"/>
<path d="M22.8494 152.727H25.0568L30.2472 165.405H30.4261L35.6165 152.727H37.8239V168H36.0938V156.396H35.9446L31.1719 168H29.5014L24.7287 156.396H24.5795V168H22.8494V152.727ZM44.6642 168.268C43.9383 168.268 43.2796 168.132 42.6879 167.858C42.0963 167.58 41.6265 167.18 41.2785 166.658C40.9305 166.131 40.7565 165.494 40.7565 164.749C40.7565 164.092 40.8857 163.56 41.1443 163.153C41.4028 162.74 41.7483 162.417 42.1808 162.183C42.6134 161.95 43.0906 161.776 43.6127 161.661C44.1396 161.542 44.6691 161.447 45.2011 161.378C45.8971 161.288 46.4614 161.221 46.8939 161.176C47.3314 161.127 47.6496 161.045 47.8485 160.93C48.0523 160.816 48.1542 160.617 48.1542 160.334V160.274C48.1542 159.538 47.9529 158.967 47.5502 158.559C47.1524 158.151 46.5484 157.947 45.738 157.947C44.8978 157.947 44.2391 158.131 43.7618 158.499C43.2845 158.867 42.949 159.26 42.7551 159.678L41.0846 159.081C41.3829 158.385 41.7806 157.843 42.2778 157.455C42.7799 157.062 43.3268 156.789 43.9184 156.635C44.515 156.476 45.1017 156.396 45.6784 156.396C46.0463 156.396 46.4688 156.441 46.9461 156.531C47.4284 156.615 47.8932 156.792 48.3406 157.06C48.7931 157.328 49.1684 157.734 49.4667 158.276C49.765 158.817 49.9142 159.543 49.9142 160.453V168H48.1542V166.449H48.0647C47.9454 166.697 47.7465 166.963 47.4681 167.247C47.1897 167.53 46.8193 167.771 46.357 167.97C45.8946 168.169 45.3303 168.268 44.6642 168.268ZM44.9326 166.688C45.6286 166.688 46.2153 166.551 46.6926 166.277C47.1748 166.004 47.5377 165.651 47.7813 165.218C48.0299 164.786 48.1542 164.331 48.1542 163.854V162.243C48.0796 162.332 47.9156 162.414 47.662 162.489C47.4134 162.559 47.1251 162.621 46.797 162.675C46.4738 162.725 46.1581 162.77 45.8499 162.81C45.5466 162.844 45.3005 162.874 45.1116 162.899C44.6542 162.959 44.2267 163.056 43.8289 163.19C43.4362 163.319 43.118 163.516 42.8744 163.779C42.6357 164.038 42.5164 164.391 42.5164 164.838C42.5164 165.45 42.7426 165.912 43.195 166.225C43.6524 166.533 44.2316 166.688 44.9326 166.688ZM54.4389 156.545L57.1832 161.229L59.9276 156.545H61.956L58.2571 162.273L61.956 168H59.9276L57.1832 163.555L54.4389 168H52.4105L56.0497 162.273L52.4105 156.545H54.4389ZM64.4672 168V156.545H66.2272V168H64.4672ZM65.3621 154.636C65.0191 154.636 64.7233 154.52 64.4747 154.286C64.2311 154.052 64.1093 153.771 64.1093 153.443C64.1093 153.115 64.2311 152.834 64.4747 152.6C64.7233 152.367 65.0191 152.25 65.3621 152.25C65.7052 152.25 65.9985 152.367 66.2421 152.6C66.4907 152.834 66.615 153.115 66.615 153.443C66.615 153.771 66.4907 154.052 66.2421 154.286C65.9985 154.52 65.7052 154.636 65.3621 154.636ZM69.4506 168V156.545H71.1509V158.335H71.3001C71.5387 157.724 71.924 157.249 72.456 156.911C72.9879 156.568 73.6268 156.396 74.3725 156.396C75.1282 156.396 75.7571 156.568 76.2592 156.911C76.7663 157.249 77.1616 157.724 77.445 158.335H77.5643C77.8576 157.744 78.2976 157.274 78.8842 156.926C79.4709 156.573 80.1744 156.396 80.9947 156.396C82.0188 156.396 82.8565 156.717 83.5078 157.358C84.1591 157.995 84.4847 158.987 84.4847 160.334V168H82.7248V160.334C82.7248 159.489 82.4936 158.885 82.0312 158.522C81.5689 158.159 81.0245 157.977 80.3981 157.977C79.5927 157.977 78.9688 158.221 78.5263 158.708C78.0838 159.19 77.8626 159.802 77.8626 160.543V168H76.0728V160.155C76.0728 159.504 75.8615 158.979 75.4389 158.581C75.0163 158.179 74.4719 157.977 73.8058 157.977C73.3484 157.977 72.9208 158.099 72.5231 158.343C72.1303 158.586 71.8121 158.924 71.5685 159.357C71.3299 159.784 71.2106 160.279 71.2106 160.841V168H69.4506ZM87.7026 168V156.545H89.4625V168H87.7026ZM88.5975 154.636C88.2544 154.636 87.9586 154.52 87.71 154.286C87.4664 154.052 87.3446 153.771 87.3446 153.443C87.3446 153.115 87.4664 152.834 87.71 152.6C87.9586 152.367 88.2544 152.25 88.5975 152.25C88.9405 152.25 89.2338 152.367 89.4775 152.6C89.726 152.834 89.8503 153.115 89.8503 153.443C89.8503 153.771 89.726 154.052 89.4775 154.286C89.2338 154.52 88.9405 154.636 88.5975 154.636ZM94.4459 152.727V168H92.686V152.727H94.4459ZM97.6694 168V156.545H99.4293V168H97.6694ZM98.5643 154.636C98.2212 154.636 97.9254 154.52 97.6768 154.286C97.4332 154.052 97.3114 153.771 97.3114 153.443C97.3114 153.115 97.4332 152.834 97.6768 152.6C97.9254 152.367 98.2212 152.25 98.5643 152.25C98.9073 152.25 99.2006 152.367 99.4442 152.6C99.6928 152.834 99.8171 153.115 99.8171 153.443C99.8171 153.771 99.6928 154.052 99.4442 154.286C99.2006 154.52 98.9073 154.636 98.5643 154.636ZM106.024 168.268C105.298 168.268 104.639 168.132 104.047 167.858C103.456 167.58 102.986 167.18 102.638 166.658C102.29 166.131 102.116 165.494 102.116 164.749C102.116 164.092 102.245 163.56 102.504 163.153C102.762 162.74 103.108 162.417 103.54 162.183C103.973 161.95 104.45 161.776 104.972 161.661C105.499 161.542 106.028 161.447 106.56 161.378C107.256 161.288 107.821 161.221 108.253 161.176C108.691 161.127 109.009 161.045 109.208 160.93C109.412 160.816 109.514 160.617 109.514 160.334V160.274C109.514 159.538 109.312 158.967 108.91 158.559C108.512 158.151 107.908 157.947 107.097 157.947C106.257 157.947 105.598 158.131 105.121 158.499C104.644 158.867 104.308 159.26 104.114 159.678L102.444 159.081C102.742 158.385 103.14 157.843 103.637 157.455C104.139 157.062 104.686 156.789 105.278 156.635C105.874 156.476 106.461 156.396 107.038 156.396C107.406 156.396 107.828 156.441 108.305 156.531C108.788 156.615 109.253 156.792 109.7 157.06C110.152 157.328 110.528 157.734 110.826 158.276C111.124 158.817 111.274 159.543 111.274 160.453V168H109.514V166.449H109.424C109.305 166.697 109.106 166.963 108.828 167.247C108.549 167.53 108.179 167.771 107.716 167.97C107.254 168.169 106.69 168.268 106.024 168.268ZM106.292 166.688C106.988 166.688 107.575 166.551 108.052 166.277C108.534 166.004 108.897 165.651 109.141 165.218C109.389 164.786 109.514 164.331 109.514 163.854V162.243C109.439 162.332 109.275 162.414 109.021 162.489C108.773 162.559 108.484 162.621 108.156 162.675C107.833 162.725 107.517 162.77 107.209 162.81C106.906 162.844 106.66 162.874 106.471 162.899C106.014 162.959 105.586 163.056 105.188 163.19C104.796 163.319 104.477 163.516 104.234 163.779C103.995 164.038 103.876 164.391 103.876 164.838C103.876 165.45 104.102 165.912 104.554 166.225C105.012 166.533 105.591 166.688 106.292 166.688ZM116.246 161.109V168H114.486V156.545H116.186V158.335H116.335C116.604 157.754 117.011 157.286 117.558 156.933C118.105 156.575 118.811 156.396 119.676 156.396C120.452 156.396 121.13 156.555 121.712 156.874C122.294 157.187 122.746 157.664 123.069 158.305C123.392 158.942 123.554 159.747 123.554 160.722V168H121.794V160.841C121.794 159.941 121.56 159.24 121.093 158.738C120.626 158.231 119.984 157.977 119.169 157.977C118.607 157.977 118.105 158.099 117.663 158.343C117.225 158.586 116.88 158.942 116.626 159.409C116.373 159.876 116.246 160.443 116.246 161.109ZM133.541 152.727L138.075 165.584H138.254L142.788 152.727H144.727L139.119 168H137.21L131.602 152.727H133.541ZM150.455 168.239C149.421 168.239 148.513 167.993 147.733 167.5C146.957 167.008 146.351 166.32 145.913 165.435C145.481 164.55 145.264 163.516 145.264 162.332C145.264 161.139 145.481 160.098 145.913 159.208C146.351 158.318 146.957 157.627 147.733 157.135C148.513 156.642 149.421 156.396 150.455 156.396C151.489 156.396 152.394 156.642 153.169 157.135C153.95 157.627 154.556 158.318 154.989 159.208C155.426 160.098 155.645 161.139 155.645 162.332C155.645 163.516 155.426 164.55 154.989 165.435C154.556 166.32 153.95 167.008 153.169 167.5C152.394 167.993 151.489 168.239 150.455 168.239ZM150.455 166.658C151.24 166.658 151.886 166.456 152.394 166.054C152.901 165.651 153.276 165.121 153.52 164.465C153.763 163.809 153.885 163.098 153.885 162.332C153.885 161.567 153.763 160.853 153.52 160.192C153.276 159.531 152.901 158.996 152.394 158.589C151.886 158.181 151.24 157.977 150.455 157.977C149.669 157.977 149.023 158.181 148.516 158.589C148.009 158.996 147.633 159.531 147.39 160.192C147.146 160.853 147.024 161.567 147.024 162.332C147.024 163.098 147.146 163.809 147.39 164.465C147.633 165.121 148.009 165.651 148.516 166.054C149.023 166.456 149.669 166.658 150.455 166.658ZM162.955 172.534C162.105 172.534 161.374 172.425 160.763 172.206C160.151 171.992 159.642 171.709 159.234 171.356C158.831 171.008 158.51 170.635 158.272 170.237L159.674 169.253C159.833 169.462 160.034 169.7 160.278 169.969C160.521 170.242 160.855 170.478 161.277 170.677C161.705 170.881 162.264 170.983 162.955 170.983C163.88 170.983 164.643 170.759 165.244 170.312C165.846 169.864 166.147 169.163 166.147 168.209V165.882H165.998C165.868 166.091 165.684 166.349 165.446 166.658C165.212 166.961 164.874 167.232 164.432 167.471C163.994 167.704 163.403 167.821 162.657 167.821C161.732 167.821 160.902 167.602 160.166 167.165C159.435 166.727 158.856 166.091 158.428 165.256C158.006 164.42 157.795 163.406 157.795 162.213C157.795 161.04 158.001 160.018 158.414 159.148C158.826 158.273 159.4 157.597 160.136 157.12C160.872 156.637 161.722 156.396 162.687 156.396C163.432 156.396 164.024 156.521 164.461 156.769C164.904 157.013 165.242 157.291 165.476 157.604C165.714 157.913 165.898 158.166 166.028 158.365H166.206V156.545H167.907V168.328C167.907 169.312 167.683 170.113 167.236 170.729C166.793 171.351 166.197 171.806 165.446 172.094C164.7 172.387 163.87 172.534 162.955 172.534ZM162.895 166.24C163.601 166.24 164.198 166.078 164.685 165.755C165.172 165.432 165.543 164.967 165.796 164.361C166.05 163.754 166.177 163.028 166.177 162.183C166.177 161.358 166.052 160.63 165.804 159.998C165.555 159.367 165.187 158.872 164.7 158.514C164.213 158.156 163.611 157.977 162.895 157.977C162.15 157.977 161.528 158.166 161.031 158.544C160.539 158.922 160.169 159.429 159.92 160.065C159.676 160.702 159.555 161.408 159.555 162.183C159.555 162.979 159.679 163.682 159.927 164.294C160.181 164.9 160.554 165.377 161.046 165.725C161.543 166.069 162.16 166.24 162.895 166.24ZM175.931 168.239C174.827 168.239 173.875 167.995 173.075 167.508C172.279 167.016 171.665 166.33 171.233 165.45C170.805 164.565 170.591 163.536 170.591 162.362C170.591 161.189 170.805 160.155 171.233 159.26C171.665 158.36 172.267 157.659 173.037 157.157C173.813 156.65 174.718 156.396 175.752 156.396C176.349 156.396 176.938 156.496 177.519 156.695C178.101 156.893 178.631 157.217 179.108 157.664C179.585 158.107 179.965 158.693 180.249 159.424C180.532 160.155 180.674 161.055 180.674 162.124V162.869H171.844V161.348H178.884C178.884 160.702 178.755 160.125 178.496 159.618C178.243 159.111 177.88 158.711 177.407 158.417C176.94 158.124 176.388 157.977 175.752 157.977C175.051 157.977 174.444 158.151 173.932 158.499C173.425 158.842 173.035 159.29 172.762 159.842C172.488 160.393 172.351 160.985 172.351 161.616V162.631C172.351 163.496 172.501 164.229 172.799 164.831C173.102 165.427 173.522 165.882 174.059 166.195C174.596 166.504 175.22 166.658 175.931 166.658C176.393 166.658 176.811 166.593 177.184 166.464C177.562 166.33 177.887 166.131 178.161 165.867C178.434 165.599 178.645 165.266 178.795 164.868L180.495 165.345C180.316 165.922 180.015 166.429 179.593 166.866C179.17 167.299 178.648 167.637 178.026 167.881C177.405 168.119 176.706 168.239 175.931 168.239ZM185.111 152.727V168H183.351V152.727H185.111Z" fill="black"/>
<rect x="395" y="154" width="11" height="11" rx="3" fill="url(#paint1_linear_88_1067)" stroke="black"/>
<path d="M395.583 220.8H406.417V220.525C405.658 219.883 404.819 219.402 403.898 219.082C402.977 218.761 402.011 218.6 401 218.6C399.989 218.6 399.023 218.761 398.102 219.082C397.181 219.402 396.342 219.883 395.583 220.525V220.8ZM393.417 219.535C394.392 218.563 395.525 217.798 396.816 217.238C398.107 216.679 399.501 216.4 401 216.4C402.499 216.4 403.894 216.679 405.185 217.238C406.476 217.798 407.608 218.563 408.583 219.535V205.4H393.417V219.535ZM401 214.2C399.953 214.2 399.059 213.824 398.319 213.073C397.578 212.321 397.208 211.413 397.208 210.35C397.208 209.287 397.578 208.379 398.319 207.627C399.059 206.876 399.953 206.5 401 206.5C402.047 206.5 402.941 206.876 403.681 207.627C404.422 208.379 404.792 209.287 404.792 210.35C404.792 211.413 404.422 212.321 403.681 213.073C402.941 213.824 402.047 214.2 401 214.2ZM401 212C401.451 212 401.835 211.839 402.151 211.518C402.467 211.198 402.625 210.808 402.625 210.35C402.625 209.892 402.467 209.502 402.151 209.182C401.835 208.861 401.451 208.7 401 208.7C400.549 208.7 400.165 208.861 399.849 209.182C399.533 209.502 399.375 209.892 399.375 210.35C399.375 210.808 399.533 211.198 399.849 211.518C400.165 211.839 400.549 212 401 212ZM392.25 223C391.698 223 391.25 222.552 391.25 222V204.2C391.25 203.648 391.698 203.2 392.25 203.2H394.5V202C394.5 201.448 394.948 201 395.5 201H395.667C396.219 201 396.667 201.448 396.667 202V203.2H405.333V202C405.333 201.448 405.781 201 406.333 201H406.5C407.052 201 407.5 201.448 407.5 202V203.2H409.75C410.302 203.2 410.75 203.648 410.75 204.2V222C410.75 222.552 410.302 223 409.75 223H392.25Z" fill="black"/>
<path d="M24.6989 203.727V219H22.8494V203.727H24.6989ZM29.9284 212.109V219H28.1684V207.545H29.8687V209.335H30.0178C30.2863 208.754 30.694 208.286 31.2409 207.933C31.7877 207.575 32.4937 207.396 33.3588 207.396C34.1343 207.396 34.8129 207.555 35.3946 207.874C35.9763 208.187 36.4287 208.664 36.7519 209.305C37.075 209.942 37.2366 210.747 37.2366 211.722V219H35.4767V211.841C35.4767 210.941 35.243 210.24 34.7757 209.738C34.3083 209.231 33.667 208.977 32.8517 208.977C32.2899 208.977 31.7877 209.099 31.3453 209.343C30.9078 209.586 30.5622 209.942 30.3087 210.409C30.0551 210.876 29.9284 211.443 29.9284 212.109ZM49.4089 207.545L45.1731 219H43.3833L39.1475 207.545H41.0566L44.2186 216.673H44.3379L47.4998 207.545H49.4089ZM51.7319 219V207.545H53.4918V219H51.7319ZM52.6268 205.636C52.2837 205.636 51.9879 205.52 51.7393 205.286C51.4957 205.052 51.3739 204.771 51.3739 204.443C51.3739 204.115 51.4957 203.834 51.7393 203.6C51.9879 203.367 52.2837 203.25 52.6268 203.25C52.9698 203.25 53.2631 203.367 53.5067 203.6C53.7553 203.834 53.8796 204.115 53.8796 204.443C53.8796 204.771 53.7553 205.052 53.5067 205.286C53.2631 205.52 52.9698 205.636 52.6268 205.636ZM61.6968 207.545V209.037H55.7607V207.545H61.6968ZM57.4909 204.801H59.2508V215.719C59.2508 216.216 59.3229 216.589 59.4671 216.837C59.6162 217.081 59.8051 217.245 60.0338 217.33C60.2675 217.409 60.5136 217.449 60.7721 217.449C60.966 217.449 61.1251 217.439 61.2494 217.419C61.3737 217.394 61.4731 217.374 61.5477 217.359L61.9056 218.94C61.7863 218.985 61.6198 219.03 61.406 219.075C61.1922 219.124 60.9213 219.149 60.5931 219.149C60.096 219.149 59.6088 219.042 59.1315 218.828C58.6592 218.615 58.2664 218.289 57.9532 217.852C57.645 217.414 57.4909 216.862 57.4909 216.196V204.801ZM69.0237 219.239C67.92 219.239 66.968 218.995 66.1675 218.508C65.3721 218.016 64.7581 217.33 64.3256 216.45C63.898 215.565 63.6842 214.536 63.6842 213.362C63.6842 212.189 63.898 211.155 64.3256 210.26C64.7581 209.36 65.3596 208.659 66.1302 208.157C66.9058 207.65 67.8106 207.396 68.8447 207.396C69.4413 207.396 70.0305 207.496 70.6121 207.695C71.1938 207.893 71.7233 208.217 72.2006 208.664C72.6778 209.107 73.0582 209.693 73.3415 210.424C73.6249 211.155 73.7666 212.055 73.7666 213.124V213.869H64.9371V212.348H71.9768C71.9768 211.702 71.8476 211.125 71.589 210.618C71.3355 210.111 70.9726 209.711 70.5003 209.417C70.0329 209.124 69.4811 208.977 68.8447 208.977C68.1437 208.977 67.5372 209.151 67.0251 209.499C66.518 209.842 66.1278 210.29 65.8543 210.842C65.5809 211.393 65.4442 211.985 65.4442 212.616V213.631C65.4442 214.496 65.5933 215.229 65.8916 215.831C66.1949 216.427 66.615 216.882 67.1519 217.195C67.6888 217.504 68.3128 217.658 69.0237 217.658C69.4861 217.658 69.9037 217.593 70.2765 217.464C70.6544 217.33 70.98 217.131 71.2535 216.867C71.5269 216.599 71.7382 216.266 71.8873 215.868L73.5876 216.345C73.4086 216.922 73.1079 217.429 72.6853 217.866C72.2627 218.299 71.7407 218.637 71.1192 218.881C70.4978 219.119 69.7993 219.239 69.0237 219.239ZM84.11 212.109V219H82.3501V207.545H84.0503V209.335H84.1995C84.468 208.754 84.8756 208.286 85.4225 207.933C85.9694 207.575 86.6753 207.396 87.5404 207.396C88.316 207.396 88.9946 207.555 89.5763 207.874C90.1579 208.187 90.6104 208.664 90.9335 209.305C91.2567 209.942 91.4182 210.747 91.4182 211.722V219H89.6583V211.841C89.6583 210.941 89.4246 210.24 88.9573 209.738C88.49 209.231 87.8486 208.977 87.0333 208.977C86.4715 208.977 85.9694 209.099 85.5269 209.343C85.0894 209.586 84.7439 209.942 84.4903 210.409C84.2368 210.876 84.11 211.443 84.11 212.109ZM99.4368 219.239C98.3331 219.239 97.381 218.995 96.5806 218.508C95.7852 218.016 95.1712 217.33 94.7386 216.45C94.3111 215.565 94.0973 214.536 94.0973 213.362C94.0973 212.189 94.3111 211.155 94.7386 210.26C95.1712 209.36 95.7727 208.659 96.5433 208.157C97.3189 207.65 98.2237 207.396 99.2578 207.396C99.8544 207.396 100.444 207.496 101.025 207.695C101.607 207.893 102.136 208.217 102.614 208.664C103.091 209.107 103.471 209.693 103.755 210.424C104.038 211.155 104.18 212.055 104.18 213.124V213.869H95.3501V212.348H102.39C102.39 211.702 102.261 211.125 102.002 210.618C101.749 210.111 101.386 209.711 100.913 209.417C100.446 209.124 99.8942 208.977 99.2578 208.977C98.5568 208.977 97.9503 209.151 97.4382 209.499C96.9311 209.842 96.5408 210.29 96.2674 210.842C95.994 211.393 95.8572 211.985 95.8572 212.616V213.631C95.8572 214.496 96.0064 215.229 96.3047 215.831C96.608 216.427 97.0281 216.882 97.565 217.195C98.1019 217.504 98.7259 217.658 99.4368 217.658C99.8991 217.658 100.317 217.593 100.69 217.464C101.067 217.33 101.393 217.131 101.667 216.867C101.94 216.599 102.151 216.266 102.3 215.868L104.001 216.345C103.822 216.922 103.521 217.429 103.098 217.866C102.676 218.299 102.154 218.637 101.532 218.881C100.911 219.119 100.212 219.239 99.4368 219.239ZM109.452 219L105.962 207.545H107.811L110.287 216.315H110.407L112.853 207.545H114.732L117.148 216.286H117.267L119.743 207.545H121.593L118.103 219H116.373L113.867 210.2H113.688L111.182 219H109.452ZM134.479 219.239C133.405 219.239 132.48 218.985 131.705 218.478C130.929 217.971 130.333 217.272 129.915 216.382C129.498 215.493 129.289 214.476 129.289 213.332C129.289 212.169 129.502 211.142 129.93 210.252C130.363 209.358 130.964 208.659 131.735 208.157C132.51 207.65 133.415 207.396 134.449 207.396C135.255 207.396 135.98 207.545 136.627 207.844C137.273 208.142 137.803 208.56 138.215 209.097C138.628 209.634 138.884 210.26 138.983 210.976H137.223C137.089 210.454 136.791 209.991 136.328 209.589C135.871 209.181 135.255 208.977 134.479 208.977C133.793 208.977 133.191 209.156 132.674 209.514C132.162 209.867 131.762 210.367 131.474 211.013C131.19 211.654 131.049 212.408 131.049 213.273C131.049 214.158 131.188 214.928 131.466 215.585C131.75 216.241 132.147 216.75 132.659 217.113C133.176 217.476 133.783 217.658 134.479 217.658C134.936 217.658 135.352 217.578 135.724 217.419C136.097 217.26 136.413 217.031 136.672 216.733C136.93 216.435 137.114 216.077 137.223 215.659H138.983C138.884 216.335 138.638 216.944 138.245 217.486C137.857 218.023 137.343 218.451 136.701 218.769C136.065 219.082 135.324 219.239 134.479 219.239ZM146.21 219.239C145.175 219.239 144.268 218.993 143.488 218.5C142.712 218.008 142.105 217.32 141.668 216.435C141.235 215.55 141.019 214.516 141.019 213.332C141.019 212.139 141.235 211.098 141.668 210.208C142.105 209.318 142.712 208.627 143.488 208.135C144.268 207.642 145.175 207.396 146.21 207.396C147.244 207.396 148.148 207.642 148.924 208.135C149.705 208.627 150.311 209.318 150.744 210.208C151.181 211.098 151.4 212.139 151.4 213.332C151.4 214.516 151.181 215.55 150.744 216.435C150.311 217.32 149.705 218.008 148.924 218.5C148.148 218.993 147.244 219.239 146.21 219.239ZM146.21 217.658C146.995 217.658 147.641 217.456 148.148 217.054C148.656 216.651 149.031 216.121 149.275 215.465C149.518 214.809 149.64 214.098 149.64 213.332C149.64 212.567 149.518 211.853 149.275 211.192C149.031 210.531 148.656 209.996 148.148 209.589C147.641 209.181 146.995 208.977 146.21 208.977C145.424 208.977 144.778 209.181 144.271 209.589C143.763 209.996 143.388 210.531 143.145 211.192C142.901 211.853 142.779 212.567 142.779 213.332C142.779 214.098 142.901 214.809 143.145 215.465C143.388 216.121 143.763 216.651 144.271 217.054C144.778 217.456 145.424 217.658 146.21 217.658ZM155.846 212.109V219H154.086V207.545H155.787V209.335H155.936C156.204 208.754 156.612 208.286 157.159 207.933C157.706 207.575 158.412 207.396 159.277 207.396C160.052 207.396 160.731 207.555 161.313 207.874C161.894 208.187 162.347 208.664 162.67 209.305C162.993 209.942 163.155 210.747 163.155 211.722V219H161.395V211.841C161.395 210.941 161.161 210.24 160.694 209.738C160.226 209.231 159.585 208.977 158.77 208.977C158.208 208.977 157.706 209.099 157.263 209.343C156.826 209.586 156.48 209.942 156.227 210.409C155.973 210.876 155.846 211.443 155.846 212.109ZM171.352 207.545V209.037H165.416V207.545H171.352ZM167.146 204.801H168.906V215.719C168.906 216.216 168.978 216.589 169.122 216.837C169.271 217.081 169.46 217.245 169.689 217.33C169.923 217.409 170.169 217.449 170.427 217.449C170.621 217.449 170.78 217.439 170.905 217.419C171.029 217.394 171.128 217.374 171.203 217.359L171.561 218.94C171.442 218.985 171.275 219.03 171.061 219.075C170.847 219.124 170.577 219.149 170.248 219.149C169.751 219.149 169.264 219.042 168.787 218.828C168.314 218.615 167.922 218.289 167.608 217.852C167.3 217.414 167.146 216.862 167.146 216.196V204.801ZM177.37 219.268C176.644 219.268 175.986 219.132 175.394 218.858C174.802 218.58 174.333 218.18 173.985 217.658C173.637 217.131 173.463 216.494 173.463 215.749C173.463 215.092 173.592 214.56 173.85 214.153C174.109 213.74 174.454 213.417 174.887 213.183C175.319 212.95 175.797 212.776 176.319 212.661C176.846 212.542 177.375 212.447 177.907 212.378C178.603 212.288 179.167 212.221 179.6 212.176C180.037 212.127 180.356 212.045 180.555 211.93C180.758 211.816 180.86 211.617 180.86 211.334V211.274C180.86 210.538 180.659 209.967 180.256 209.559C179.858 209.151 179.254 208.947 178.444 208.947C177.604 208.947 176.945 209.131 176.468 209.499C175.991 209.867 175.655 210.26 175.461 210.678L173.791 210.081C174.089 209.385 174.487 208.843 174.984 208.455C175.486 208.062 176.033 207.789 176.624 207.635C177.221 207.476 177.808 207.396 178.384 207.396C178.752 207.396 179.175 207.441 179.652 207.531C180.134 207.615 180.599 207.792 181.047 208.06C181.499 208.328 181.874 208.734 182.173 209.276C182.471 209.817 182.62 210.543 182.62 211.453V219H180.86V217.449H180.771C180.651 217.697 180.453 217.963 180.174 218.247C179.896 218.53 179.525 218.771 179.063 218.97C178.601 219.169 178.036 219.268 177.37 219.268ZM177.639 217.688C178.335 217.688 178.921 217.551 179.399 217.277C179.881 217.004 180.244 216.651 180.487 216.218C180.736 215.786 180.86 215.331 180.86 214.854V213.243C180.786 213.332 180.622 213.414 180.368 213.489C180.119 213.559 179.831 213.621 179.503 213.675C179.18 213.725 178.864 213.77 178.556 213.81C178.253 213.844 178.007 213.874 177.818 213.899C177.36 213.959 176.933 214.056 176.535 214.19C176.142 214.319 175.824 214.516 175.58 214.779C175.342 215.038 175.222 215.391 175.222 215.838C175.222 216.45 175.449 216.912 175.901 217.225C176.358 217.533 176.938 217.688 177.639 217.688ZM190.486 219.239C189.412 219.239 188.487 218.985 187.712 218.478C186.936 217.971 186.34 217.272 185.922 216.382C185.504 215.493 185.296 214.476 185.296 213.332C185.296 212.169 185.509 211.142 185.937 210.252C186.369 209.358 186.971 208.659 187.742 208.157C188.517 207.65 189.422 207.396 190.456 207.396C191.261 207.396 191.987 207.545 192.634 207.844C193.28 208.142 193.809 208.56 194.222 209.097C194.635 209.634 194.891 210.26 194.99 210.976H193.23C193.096 210.454 192.798 209.991 192.335 209.589C191.878 209.181 191.261 208.977 190.486 208.977C189.8 208.977 189.198 209.156 188.681 209.514C188.169 209.867 187.769 210.367 187.481 211.013C187.197 211.654 187.055 212.408 187.055 213.273C187.055 214.158 187.195 214.928 187.473 215.585C187.756 216.241 188.154 216.75 188.666 217.113C189.183 217.476 189.79 217.658 190.486 217.658C190.943 217.658 191.358 217.578 191.731 217.419C192.104 217.26 192.42 217.031 192.678 216.733C192.937 216.435 193.121 216.077 193.23 215.659H194.99C194.891 216.335 194.645 216.944 194.252 217.486C193.864 218.023 193.35 218.451 192.708 218.769C192.072 219.082 191.331 219.239 190.486 219.239ZM202.544 207.545V209.037H196.608V207.545H202.544ZM198.339 204.801H200.098V215.719C200.098 216.216 200.171 216.589 200.315 216.837C200.464 217.081 200.653 217.245 200.881 217.33C201.115 217.409 201.361 217.449 201.62 217.449C201.814 217.449 201.973 217.439 202.097 217.419C202.221 217.394 202.321 217.374 202.395 217.359L202.753 218.94C202.634 218.985 202.467 219.03 202.254 219.075C202.04 219.124 201.769 219.149 201.441 219.149C200.944 219.149 200.456 219.042 199.979 218.828C199.507 218.615 199.114 218.289 198.801 217.852C198.493 217.414 198.339 216.862 198.339 216.196V204.801Z" fill="black"/>
</g>
<rect x="0.5" y="33.5" width="421" height="203" rx="9.5" stroke="#D1D1D1"/>
<defs>
<linearGradient id="paint0_linear_88_1067" x1="400.5" y1="104" x2="400.5" y2="115" gradientUnits="userSpaceOnUse">
<stop stop-color="#F9F9F9"/>
<stop offset="1" stop-color="#F0F0F0"/>
</linearGradient>
<linearGradient id="paint1_linear_88_1067" x1="400.5" y1="154" x2="400.5" y2="165" gradientUnits="userSpaceOnUse">
<stop stop-color="#F9F9F9"/>
<stop offset="1" stop-color="#F0F0F0"/>
</linearGradient>
<clipPath id="clip0_88_1067">
<rect y="33" width="422" height="204" rx="10" fill="white"/>
</clipPath>
</defs>
</svg>
